<svg id="_1" data-name="1" xmlns="http://www.w3.org/2000/svg" viewBox="0 0 705.04 98.17"><defs><style>.cls-1,.cls-2{fill:#319b42;}.cls-1{fill-rule:evenodd;}</style></defs><title>logo</title><path class="cls-1" d="M352.78,767l1.67,3.19A34.29,34.29,0,0,1,336.3,775c-15.95,0-25.14-8.51-25.14-26.81,0-17.55,7.36-28.18,26.2-28.18a44.66,44.66,0,0,1,15.49,2.43c-.15,3.57-.15,7.52,0,11.09h-3.41l-.91-3.34c-1.22-4-3.57-6.69-10.79-6.69-11.32,0-14.2,8.36-14.2,22.71,0,13.67,2.81,23.85,15.95,23.85A27.62,27.62,0,0,0,352.78,767Z" transform="translate(-75.23 -707.65)"/><path class="cls-1" d="M225.89,740h-3V727.41c0-2.28.46-3.12,3.8-3.12H234c6.92,0,8.81.53,10.49,6l.68,2.21h2.88c-.14-3.88-.14-7.68,0-11.55H208.49v1.67c2.66.61,3,1.37,3,4.26V768.2c0,2.88-.38,3.64-3,4.24v1.68h21.27c13,0,21-3.49,21-17.77,0-14.67-10.33-16.33-24.91-16.33Zm3.34,30.76h-1.6c-3.79,0-4.71-1.22-4.71-4.64V743.36h4.64c9,0,11.32,4.86,11.32,13.51C238.88,766.14,236.14,770.78,229.23,770.78Z" transform="translate(-75.23 -707.65)"/><path class="cls-1" d="M305.46,722.91v-1.67H257v1.67c2.65.61,3,1.37,3,4.25v41.31c0,2.89-.38,3.65-3,4.26v1.67h17.46v-1.67c-2.66-.61-3-1.37-3-4.26V724.84H291v43.63c0,2.89-.38,3.65-3,4.26v1.67h17.47v-1.67c-2.66-.61-3-1.37-3-4.26V727.16C302.42,724.28,302.8,723.52,305.46,722.91Z" transform="translate(-75.23 -707.65)"/><rect class="cls-2" x="281.64" y="41.03" width="22.28" height="5.32"/><path class="cls-1" d="M428.67,767l1.68,3.19a34.3,34.3,0,0,1-18.16,4.86c-15.95,0-25.14-8.51-25.14-26.81,0-17.55,7.37-28.18,26.21-28.18a44.72,44.72,0,0,1,15.49,2.43c-.15,3.57-.15,7.52,0,11.09h-3.42l-.91-3.34c-1.21-4-3.57-6.69-10.78-6.69-11.32,0-14.21,8.36-14.21,22.71,0,13.68,2.81,23.85,15.95,23.85A27.55,27.55,0,0,0,428.67,767Zm24.69-42.69h0c-3.34,0-3.8.84-3.8,3.12v12.61h3c14.58,0,24.91,1.67,24.91,16.33,0,14.28-8.05,17.77-21,17.77H435.13v-1.67c2.66-.61,3-1.37,3-4.25V726.92c0-2.89-.38-3.65-3-4.26V721h39.58c-.16,3.88-.16,7.67,0,11.55h-2.89l-.69-2.21c-1.67-5.46-3.57-6-10.48-6Zm2.51,46.49h0c6.91,0,9.64-4.64,9.64-13.9,0-8.66-2.35-13.52-11.31-13.52h-4.64v22.78c0,3.42.91,4.64,4.71,4.64Zm44.66-46.49h0c-2.28,0-2.66.61-2.66,2.43v16.49h7.06c3,0,7.6-.31,9.42-1.6v6.69c-1.82-1.3-6.45-1.6-9.42-1.6h-7.06v19.82c0,3.19,1.29,4.26,8.28,4.26h1.52c6.91,0,8.73-.46,10.25-7.07l.46-2h3.34c-.15,4.1-.15,8.28,0,12.38H483.44v-1.67c2.66-.61,3-1.37,3-4.25V726.92c0-2.89-.37-3.65-3-4.26V721H520.5c-.15,3.88-.15,7.67,0,11.55h-2.88l-.69-2.21c-1.67-5.46-3.57-6-10.48-6Zm28,49.83h0v-1.67c2.66-.61,3-1.37,3-4.25V726.92c0-2.89-.38-3.65-3-4.26V721h22c10.56,0,18.46,2.51,18.46,15.27,0,13-7.9,16.86-20.74,16.86H543v15.12c0,2.88.39,3.64,3,4.25v1.67Zm19.83-24.38h0c7.06,0,8.73-5.7,8.73-14,0-7-2.43-11.47-9.57-11.47h-1.21c-2.28,0-3.35.38-3.35,2.89v22.56Zm43.67-25.45h0c-3.34,0-3.8.84-3.8,3.12v12.61h3c14.58,0,24.91,1.67,24.91,16.33,0,14.28-8,17.77-21,17.77H573.82v-1.67c2.66-.61,3-1.37,3-4.25V726.92c0-2.89-.38-3.65-3-4.26V721h39.57c-.15,3.88-.15,7.67,0,11.55h-2.88l-.69-2.21c-1.67-5.46-3.56-6-10.48-6Zm2.51,46.49h0c6.91,0,9.65-4.64,9.65-13.9,0-8.66-2.36-13.52-11.32-13.52h-4.64v22.78c0,3.42.92,4.64,4.71,4.64Zm60.31,3.34h0a98.43,98.43,0,0,0-3.57-12.46L649,754.94H632.16c-1.75,5.32-3,9.65-3.73,12.69s-1.06,5.31-1.14,6.53h-9.64c1.29-2,3.72-6.76,7.37-15.65l9.79-24.15c2.21-5.39,2.59-7.07,2.59-8.58,0-1.07-.31-2.51-3-3.12V721h15.19a32.68,32.68,0,0,0,2,7.9l11.17,31.83a94.77,94.77,0,0,0,5.69,13.44Zm-7-22.79h0L640.74,730l-7.37,21.41Zm59.55-4.63H686.92v21.5c0,2.88.38,3.64,3,4.25v1.67H672.49v-1.67c2.65-.61,3-1.37,3-4.25V726.92c0-2.89-.38-3.65-3-4.26V721H690v1.67c-2.66.61-3,1.37-3,4.26v16.33h20.51V726.92c0-2.89-.39-3.65-3-4.26V721h17.47v1.67c-2.66.61-3,1.37-3,4.26v41.32c0,2.88.38,3.64,3,4.25v1.67H704.39v-1.67c2.65-.61,3-1.37,3-4.25v-21.5Zm25.9-19.82h0c0-2.89-.38-3.65-3-4.26V721h17.47v1.67c-2.66.61-3,1.37-3,4.26v41.32c0,2.88.38,3.64,3,4.25v1.67H730.29v-1.67c2.66-.61,3-1.37,3-4.25V726.92Zm28.25,23.92-6.91-9.8,5.54-5.92c2.43-2.66,10.87-11.16,15.88-14V721H763.63c-1.44,3.65-6.83,10.86-11,16.26l-7,9,8,12.08a96.8,96.8,0,0,1,8.74,15.8h17.84c-6.3-6.38-15-18.08-18.68-23.32Z" transform="translate(-75.23 -707.65)"/><rect class="cls-2" x="133.48" y="79.8" width="571.56" height="5.32"/><path class="cls-1" d="M146.16,707.65a48.14,48.14,0,0,1,5.72,2.93L106.23,737,85,724.75a51.8,51.8,0,0,1,3.55-4.38l17.75,10.17,39.87-22.89Zm11.16,6.29-51,29.44L82,729.42a47.63,47.63,0,0,0-2.55,5l26.84,15.45,55.32-32a45.62,45.62,0,0,0-4.29-3.94Zm8.37,8.15-59.4,34.23L77.46,739.79a51.63,51.63,0,0,0-1.38,5.41l30.15,17.46,62.8-36a48.48,48.48,0,0,0-3.34-4.56Zm6,9.21-65.51,37.76L75.35,751.17c-.08,1.18-.12,2.38-.12,3.58a51.07,51.07,0,1,0,96.44-23.45Z" transform="translate(-75.23 -707.65)"/></svg>