<svg width="22" height="20" viewBox="0 0 22 20" fill="none" xmlns="http://www.w3.org/2000/svg">
<path d="M20.2508 1.79471L13.4226 17.817L10.1611 14.9589L7.44401 18.2477V12.5854L17.2638 4.25794L5.38624 10.7682L1.76192 7.62751L20.2508 1.79471ZM20.2508 0C20.0738 0.000289031 19.8978 0.0275126 19.7287 0.0807617L1.23973 5.90459C0.939108 6.00031 0.669135 6.17567 0.457693 6.41254C0.246251 6.64941 0.101005 6.93922 0.0369549 7.25203C-0.0270955 7.56484 -0.00762862 7.88931 0.0933452 8.19194C0.194319 8.49458 0.373139 8.76439 0.61134 8.97354L4.24009 12.1143C4.5582 12.3988 4.96651 12.558 5.39067 12.563C5.48939 12.5697 5.58844 12.5697 5.68716 12.563V18.2477C5.69557 18.6086 5.81113 18.9585 6.01874 19.2518C6.22635 19.5451 6.51637 19.768 6.85091 19.8916C7.18545 20.0152 7.54897 20.0336 7.89399 19.9444C8.23901 19.8552 8.54948 19.6627 8.78487 19.3918L10.3603 17.4984L12.272 19.172C12.5901 19.4565 12.9984 19.6157 13.4226 19.6206C13.5536 19.619 13.684 19.604 13.812 19.5758C14.0809 19.5122 14.3313 19.3858 14.5434 19.2066C14.7555 19.0275 14.9233 18.8005 15.0334 18.5438L21.8616 2.51259C21.9741 2.24143 22.0191 1.94641 21.9926 1.65349C21.9662 1.36056 21.8692 1.07872 21.7101 0.832751C21.5509 0.586785 21.3346 0.38424 21.0802 0.24294C20.8257 0.10164 20.5409 0.0259167 20.2508 0.0224339V0Z" fill="#ffffff"/>
</svg>
