<svg width="11" height="20" viewBox="0 0 11 20" fill="none" xmlns="http://www.w3.org/2000/svg">
<path d="M10.4254 0.00416133L7.82696 0C4.90773 0 3.02117 1.9319 3.02117 4.92203V7.19141H0.408579C0.182817 7.19141 0 7.37408 0 7.59943V10.8875C0 11.1129 0.183026 11.2953 0.408579 11.2953H3.02117V19.5922C3.02117 19.8176 3.20399 20 3.42975 20H6.83845C7.06421 20 7.24703 19.8173 7.24703 19.5922V11.2953H10.3018C10.5275 11.2953 10.7103 11.1129 10.7103 10.8875L10.7116 7.59943C10.7116 7.49123 10.6685 7.38763 10.5919 7.31104C10.5154 7.23447 10.4112 7.19141 10.3028 7.19141H7.24703V5.26763C7.24703 4.34298 7.46779 3.87358 8.67455 3.87358L10.425 3.87295C10.6505 3.87295 10.8333 3.69027 10.8333 3.46514V0.411972C10.8333 0.187052 10.6507 0.00457747 10.4254 0.00416133Z" fill="white"/>
</svg>
