<svg width="21" height="20" viewBox="0 0 21 20" fill="none" xmlns="http://www.w3.org/2000/svg">
<path d="M10.8333 1.74497C13.536 1.74497 13.8062 1.74497 14.8873 1.74497C15.8333 1.74497 16.3738 2.01342 16.7792 2.14765C17.1846 2.28188 17.59 2.55034 17.9954 2.95302C18.4008 3.3557 18.536 3.62416 18.8062 4.16107C18.9414 4.56376 19.0765 5.10067 19.2116 6.04027C19.2116 7.11409 19.2116 7.38255 19.2116 10.0671C19.2116 12.7517 19.2116 13.0201 19.2116 14.094C19.2116 15.0336 18.9414 15.5705 18.8062 15.9732C18.6711 16.3758 18.4008 16.7785 17.9954 17.1812C17.59 17.5839 17.3197 17.7181 16.7792 17.9866C16.3738 18.1208 15.8333 18.255 14.8873 18.3893C13.8062 18.3893 13.536 18.3893 10.8333 18.3893C8.13055 18.3893 7.86028 18.3893 6.7792 18.3893C5.83325 18.3893 5.29271 18.1208 4.88731 17.9866C4.4819 17.8523 4.07649 17.5839 3.67109 17.1812C3.26568 16.7785 3.13055 16.5101 2.86028 15.9732C2.72514 15.5705 2.59001 15.0336 2.45487 14.094C2.45487 13.0201 2.45487 12.7517 2.45487 10.0671C2.45487 7.38255 2.45487 7.11409 2.45487 6.04027C2.45487 5.10067 2.72514 4.56376 2.86028 4.16107C2.99541 3.75839 3.26568 3.3557 3.67109 2.95302C4.07649 2.55034 4.34677 2.41611 4.88731 2.14765C5.29271 2.01342 5.83325 1.87919 6.7792 1.74497C7.72514 1.87919 8.13055 1.74497 10.8333 1.74497ZM10.8333 0C8.13055 0 7.72514 0 6.64406 0C5.56298 0 4.88731 0.268457 4.21163 0.402685C3.53595 0.805369 2.99541 1.07383 2.45487 1.74497C1.7792 2.28188 1.50893 2.81879 1.23866 3.48993C0.968387 4.16107 0.833252 4.83222 0.833252 5.90604C0.833252 6.97987 0.833252 7.38255 0.833252 10.0671C0.833252 12.7517 0.833252 13.1544 0.833252 14.2282C0.833252 15.302 1.10352 15.9732 1.23866 16.6443C1.50893 17.3154 1.7792 17.8523 2.45487 18.3893C2.99541 18.9262 3.53595 19.3289 4.21163 19.5973C4.88731 19.8658 5.56298 20 6.64406 20C7.72514 20 8.13055 20 10.8333 20C13.536 20 13.9414 20 15.0224 20C16.1035 20 16.7792 19.7315 17.4549 19.5973C18.1306 19.3289 18.6711 19.0604 19.2116 18.3893C19.7522 17.8523 20.1576 17.3154 20.4278 16.6443C20.6981 15.9732 20.8333 15.302 20.8333 14.2282C20.8333 13.1544 20.8333 12.7517 20.8333 10.0671C20.8333 7.38255 20.8333 6.97987 20.8333 5.90604C20.8333 4.83222 20.563 4.16107 20.4278 3.48993C20.1576 2.81879 19.8873 2.28188 19.2116 1.74497C18.536 1.20805 18.1306 0.805369 17.4549 0.536913C16.7792 0.268456 16.1035 0.134229 15.0224 0.134229C13.9414 5.1004e-07 13.536 0 10.8333 0Z" fill="white"/>
<path d="M10.8332 4.70605C7.90748 4.70605 5.53906 7.07448 5.53906 10.0002C5.53906 12.9259 7.90748 15.2943 10.8332 15.2943C13.7589 15.2943 16.1273 12.9259 16.1273 10.0002C16.1273 7.2138 13.7589 4.70605 10.8332 4.70605ZM10.8332 13.6225C8.88272 13.6225 7.35021 12.09 7.35021 10.1395C7.35021 8.18903 8.88272 6.65652 10.8332 6.65652C12.7836 6.65652 14.3162 8.18903 14.3162 10.1395C14.3162 11.9506 12.6443 13.6225 10.8332 13.6225Z" fill="white"/>
<path d="M17.3039 4.11753C17.3039 4.44433 17.0425 4.70577 16.7157 4.70577C16.3889 4.70577 16.1274 4.44433 16.1274 4.11753C16.1274 3.79073 16.3889 3.5293 16.7157 3.5293C17.0425 3.5293 17.3039 3.79073 17.3039 4.11753Z" fill="white"/>
</svg>
