<svg width="378" height="325" viewBox="0 0 378 325" fill="none" xmlns="http://www.w3.org/2000/svg">
<path d="M82.4874 66.8203C90.1977 66.8203 96.4482 60.5698 96.4482 52.8595C96.4482 45.1491 90.1977 38.8987 82.4874 38.8987C74.7771 38.8987 68.5266 45.1491 68.5266 52.8595C68.5266 60.5698 74.7771 66.8203 82.4874 66.8203Z" fill="#D9E021"/>
<path d="M159.367 29.0793C165.716 29.0793 170.863 23.9324 170.863 17.5834C170.863 11.2343 165.716 6.0874 159.367 6.0874C153.018 6.0874 147.871 11.2343 147.871 17.5834C147.871 23.9324 153.018 29.0793 159.367 29.0793Z" fill="#F76540"/>
<path d="M302.258 82.8667C307.019 82.8667 310.88 79.0065 310.88 74.2448C310.88 69.483 307.019 65.6228 302.258 65.6228C297.496 65.6228 293.636 69.483 293.636 74.2448C293.636 79.0065 297.496 82.8667 302.258 82.8667Z" fill="#FFEB52"/>
<path d="M312.037 43.419C319.296 43.419 325.18 37.5349 325.18 30.2765C325.18 23.0181 319.296 17.134 312.037 17.134C304.779 17.134 298.895 23.0181 298.895 30.2765C298.895 37.5349 304.779 43.419 312.037 43.419Z" fill="#29ABE2"/>
<path d="M126.016 43.01C128.739 43.01 130.946 40.8029 130.946 38.0803C130.946 35.3577 128.739 33.1506 126.016 33.1506C123.294 33.1506 121.087 35.3577 121.087 38.0803C121.087 40.8029 123.294 43.01 126.016 43.01Z" fill="#29ABE2"/>
<path d="M169.665 299.743H120.398V319.132H169.665V299.743Z" fill="#F4F4F4"/>
<path d="M169.665 299.743H120.398V319.132H169.665V299.743Z" fill="#CDCCD2"/>
<path d="M182.408 321.956C182.406 322.765 182.083 323.539 181.51 324.109C180.938 324.68 180.163 325 179.355 325H110.698C109.89 325 109.115 324.68 108.543 324.109C107.97 323.539 107.647 322.765 107.645 321.956C107.645 321.147 107.966 320.37 108.539 319.797C109.112 319.225 109.889 318.903 110.698 318.903H179.355C180.165 318.903 180.941 319.225 181.514 319.797C182.087 320.37 182.408 321.147 182.408 321.956Z" fill="#E6E6E6"/>
<path d="M240.726 158.828H49.3367C43.8253 158.828 39.3575 163.295 39.3575 168.807V301.16C39.3575 306.671 43.8253 311.139 49.3367 311.139H240.726C246.238 311.139 250.705 306.671 250.705 301.16V168.807C250.705 163.295 246.238 158.828 240.726 158.828Z" fill="#444166"/>
<path d="M243.65 167.779H45.1455V282.718H243.65V167.779Z" fill="url(#paint0_linear)"/>
<path d="M39.3575 290.103V302.158C39.3575 304.804 40.4089 307.343 42.2804 309.214C44.1518 311.086 46.69 312.137 49.3367 312.137H240.716C243.363 312.137 245.901 311.086 247.773 309.214C249.644 307.343 250.695 304.804 250.695 302.158V290.103H39.3575Z" fill="#E6E6E6"/>
<g style="mix-blend-mode:screen" opacity="0.3">
<g style="mix-blend-mode:screen" opacity="0.3">
<path d="M250.027 320.29L190.891 320.33L53.7675 96.2287L112.904 96.1987L250.027 320.29Z" fill="white"/>
</g>
</g>
<g style="mix-blend-mode:screen" opacity="0.35">
<g style="mix-blend-mode:screen" opacity="0.35">
<path d="M160.354 293.795L34.5178 90.79L0 90.8299L125.817 293.795H160.354Z" fill="white"/>
</g>
</g>
<path d="M149.767 306.02C148.985 306.801 147.989 307.333 146.905 307.549C145.821 307.765 144.698 307.654 143.677 307.231C142.656 306.808 141.783 306.092 141.169 305.173C140.555 304.254 140.227 303.173 140.227 302.068C140.227 300.963 140.555 299.882 141.169 298.963C141.783 298.044 142.656 297.328 143.677 296.905C144.698 296.482 145.821 296.371 146.905 296.587C147.989 296.803 148.985 297.335 149.767 298.116C150.287 298.635 150.7 299.25 150.981 299.929C151.263 300.607 151.408 301.334 151.408 302.068C151.408 302.802 151.263 303.529 150.981 304.208C150.7 304.886 150.287 305.502 149.767 306.02Z" fill="#CDCCD2"/>
<path d="M135.018 190.911C130.108 190.282 121.795 192.986 123.392 200.391C124.08 203.554 126.236 206.378 126.296 209.771C126.396 214.94 121.895 217.166 118.253 218.503C113.612 220.209 110 223.293 111.567 229.121C113.033 234.579 118.063 237.972 111.357 241.495C106.936 243.82 102.046 244.798 100.13 250.596C98.9086 254.09 99.0439 257.915 100.51 261.313C103.214 267.161 109.301 270.145 114.48 272.54C125.393 277.445 137.477 279.137 149.318 277.42C161.113 275.843 177.858 271.512 183.995 258.629C187.168 251.963 184.943 245.886 180.802 240.816C177.968 237.334 177.03 233.631 179.474 229.64C181.341 226.646 184.574 223.872 183.586 219.661C182.329 214.312 176.73 214.611 173.377 211.837C168.617 207.845 172.669 201.858 171.022 196.729C170.618 195.501 169.916 194.393 168.979 193.504C168.042 192.614 166.9 191.97 165.653 191.629C163.864 191.218 161.991 191.374 160.295 192.078C158.658 192.707 156.832 194.354 155.026 193.505C153.838 192.946 153.1 191.15 152.032 190.382C147.671 187.388 143.051 188.236 138.79 190.851C137.193 191.879 136.794 191.15 135.018 190.911Z" fill="url(#paint1_linear)"/>
<path d="M111.497 283.317C111.724 283.267 111.958 283.267 112.185 283.317H183.696V276.102C183.705 271.3 182.734 266.546 180.842 262.132C177.734 254.607 171.796 248.605 164.306 245.417C161.932 244.439 159.427 243.817 156.872 243.57C156.014 243.491 155.155 243.441 154.267 243.441H140.326C138.56 243.44 136.798 243.617 135.067 243.97C133.478 244.294 131.922 244.761 130.417 245.367L130.248 245.437C120.717 249.328 113.453 258.569 111.457 269.835C111.14 271.629 110.96 273.443 110.918 275.264V275.364C110.918 275.613 110.918 275.853 110.918 276.092V283.307L111.497 283.317Z" fill="#C16891"/>
<path d="M161.323 215.619C161.123 215.02 160.594 214.541 159.915 214.89C159.585 215.087 159.308 215.361 159.107 215.689C158.743 213.634 158.663 211.539 158.868 209.462C158.987 207.466 158.967 205.41 157.69 203.764C154.457 199.632 151.872 204.552 147.881 204.602C143.889 204.652 141.294 199.612 138.071 203.764C135.467 207.107 138.071 212.016 136.604 215.808C136.864 215.13 135.357 214.501 134.828 214.811C133.83 215.379 134.249 218.273 134.429 219.181C134.521 219.851 134.782 220.486 135.187 221.028C135.277 221.137 136.634 222.025 136.624 221.836C136.694 224.121 137.133 227.195 138.52 229.081C139.907 230.967 141.514 231.546 142.432 233.551C144.488 238.112 140.566 243.83 135.287 245.436C137.353 246.674 145.266 248.799 147.811 248.76C150.226 248.969 158.618 248.071 157.67 245.087C152.391 243.471 151.264 238.102 153.329 233.551C154.237 231.556 155.934 230.847 157.241 229.081C158.548 227.314 159.067 224.091 159.137 221.836C159.137 222.035 160.504 221.117 160.604 220.998C160.977 220.476 161.223 219.875 161.323 219.241C161.62 218.052 161.62 216.808 161.323 215.619Z" fill="url(#paint2_linear)"/>
<path d="M107.904 277.599V283.317H186.909C186.909 279.276 186.909 276.332 186.909 276.332C186.906 271.862 185.964 267.442 184.145 263.359C182.385 259.422 179.857 255.877 176.709 252.929C173.561 249.982 169.857 247.693 165.813 246.195L165.733 246.484C164.892 250.692 162.626 254.482 159.317 257.214C156.008 259.946 151.858 261.455 147.567 261.485C143.276 261.516 139.105 260.066 135.758 257.381C132.411 254.696 130.091 250.939 129.19 246.744C129.13 246.534 129.09 246.325 129.05 246.115C128.99 246.147 128.927 246.17 128.86 246.185C124.006 248.003 119.655 250.952 116.167 254.787C111.906 259.486 109.129 265.339 108.184 271.612C108.074 272.43 107.984 273.248 107.924 274.076C107.864 274.905 107.834 275.563 107.834 276.312V277.569L107.904 277.599Z" fill="#FF9CC4"/>
<path d="M142.302 223.113C142.462 224.417 143.093 225.617 144.076 226.487C145.06 227.357 146.328 227.838 147.641 227.838C148.954 227.838 150.222 227.357 151.206 226.487C152.189 225.617 152.82 224.417 152.98 223.113H142.302Z" fill="white"/>
<path d="M100.41 208.384H28.8196C26.1742 208.384 24.0297 210.529 24.0297 213.174V222.485C24.0297 225.13 26.1742 227.275 28.8196 227.275H100.41C103.055 227.275 105.2 225.13 105.2 222.485V213.174C105.2 210.529 103.055 208.384 100.41 208.384Z" fill="#FFEB52"/>
<path opacity="0.3" d="M59.9545 208.384H28.4903C27.3098 208.387 26.1783 208.856 25.3426 209.69C24.5069 210.524 24.0349 211.654 24.0297 212.835V222.814C24.0323 223.996 24.5031 225.129 25.3391 225.965C26.175 226.801 27.3081 227.272 28.4903 227.275H72.5082C68.4767 220.888 64.2854 214.601 59.9545 208.384Z" fill="#ED7E3D"/>
<path d="M83.5951 223.153C85.9102 234.051 93.4245 238.461 100.56 237.952C94.3326 238.082 89.5826 225.389 94.8416 223.153H83.5951Z" fill="#FFEB52"/>
<path d="M142.292 200.72C140.666 207.546 145.535 210.989 152.062 208.983C151.673 215.798 163.498 214.032 167.949 213.763C165.923 205.131 155.135 193.515 142.292 200.72Z" fill="url(#paint3_linear)"/>
<path d="M203.534 250.197H275.124C277.77 250.197 279.914 248.052 279.914 245.407V236.096C279.914 233.451 277.77 231.306 275.124 231.306H203.534C200.889 231.306 198.744 233.451 198.744 236.096V245.407C198.744 248.052 200.889 250.197 203.534 250.197Z" fill="#FFEB52"/>
<path opacity="0.3" d="M275.124 231.306H238.98C233.598 237.546 228.299 243.843 223.083 250.197H275.124C276.395 250.194 277.613 249.689 278.512 248.791C279.411 247.894 279.919 246.677 279.924 245.407V236.106C279.922 234.834 279.415 233.615 278.516 232.715C277.616 231.815 276.397 231.309 275.124 231.306Z" fill="#ED7E3D"/>
<path d="M220.618 246.145C218.303 257.042 210.789 261.463 203.654 260.954C209.881 261.084 214.631 248.38 209.372 246.145H220.618Z" fill="#FFEB52"/>
<path d="M323.194 105.05H216.028C210.583 105.05 206.169 109.464 206.169 114.91V192.507C206.169 197.952 210.583 202.367 216.028 202.367H323.194C328.639 202.367 333.053 197.952 333.053 192.507V114.91C333.053 109.464 328.639 105.05 323.194 105.05Z" fill="#8EDDD9"/>
<path d="M196.319 86.5691V169.106C196.318 169.928 196.214 170.746 196.01 171.541C195.95 171.781 195.88 172.01 195.8 172.24C195.197 174.024 194.097 175.598 192.63 176.779C191.163 177.96 189.389 178.698 187.518 178.906C187.166 178.946 186.813 178.966 186.46 178.966H123.591C123.365 178.966 123.136 178.966 122.903 178.966C120.859 178.814 118.913 178.032 117.333 176.727C115.753 175.422 114.617 173.659 114.081 171.681L114.001 171.382C113.829 170.646 113.742 169.892 113.742 169.136V86.5691C113.747 83.9576 114.786 81.4544 116.632 79.6068C118.478 77.7592 120.98 76.7176 123.591 76.7097H186.46C189.073 76.715 191.578 77.7554 193.426 79.6033C195.273 81.4511 196.314 83.9558 196.319 86.5691Z" fill="#F76540"/>
<path d="M270.205 3.48267H229.45C224.005 3.48267 219.591 7.89686 219.591 13.342V85.0021C219.591 90.4473 224.005 94.8615 229.45 94.8615H270.205C275.65 94.8615 280.064 90.4473 280.064 85.0021V13.342C280.064 7.89686 275.65 3.48267 270.205 3.48267Z" fill="#FFEB52"/>
<path d="M252.342 113.113C246.504 111.956 243.431 118.991 242.213 123.562C239.878 132.273 244.209 139.897 251.454 144.857C262.132 152.192 270.624 149.098 281.541 145.116C291.38 141.534 301.499 146.753 311.568 147.112C320.679 147.432 333.053 141.853 330.229 130.697C327.235 118.722 313.265 116.606 302.846 119.071C299.254 119.919 296.15 121.286 292.867 119.071C285.343 114.081 282.888 95.7896 270.444 102.555C267.55 104.132 265.694 107.036 263.618 109.541C260.325 113.602 257.102 115.409 252.342 113.113Z" fill="url(#paint4_linear)"/>
<path d="M284.784 135.137C284.585 134.539 284.056 134.06 283.377 134.399C283.055 134.602 282.782 134.875 282.579 135.197C282.21 133.143 282.129 131.047 282.339 128.97C282.449 126.975 282.429 124.919 281.152 123.282C277.929 119.141 275.334 124.071 271.342 124.11C267.351 124.15 264.766 119.121 261.543 123.282C258.928 126.625 261.543 131.525 260.076 135.317C260.325 134.648 258.819 134.02 258.3 134.319C257.302 134.878 257.721 137.782 257.9 138.68C257.99 139.349 258.247 139.984 258.649 140.526C258.749 140.646 260.096 141.524 260.096 141.334C260.166 143.62 260.605 146.703 261.992 148.579C263.379 150.455 264.986 151.044 265.894 153.06C267.959 157.62 264.028 163.328 258.759 164.945C260.814 166.182 268.738 168.308 271.282 168.258C273.687 168.468 282.09 167.58 281.142 164.586C275.863 162.979 274.735 157.6 276.801 153.06C277.709 151.064 279.405 150.356 280.703 148.579C282 146.803 282.529 143.59 282.599 141.334C282.599 141.534 283.966 140.616 284.066 140.506C284.441 139.986 284.687 139.384 284.784 138.75C285.09 137.565 285.09 136.322 284.784 135.137Z" fill="url(#paint5_linear)"/>
<path d="M234.978 202.836C235.209 202.786 235.447 202.786 235.677 202.836H308.145V195.85C308.153 191.205 307.166 186.611 305.251 182.378C301.98 175.03 295.957 169.259 288.476 166.302C286.062 165.353 283.526 164.752 280.942 164.516C280.074 164.436 279.196 164.386 278.298 164.386H264.207C262.419 164.388 260.635 164.558 258.878 164.895C257.273 165.211 255.698 165.662 254.168 166.242L253.999 166.312C249.09 168.3 244.767 171.502 241.435 175.618C238.103 179.733 235.871 184.628 234.948 189.843C234.625 191.568 234.438 193.317 234.39 195.072V202.836H234.978Z" fill="white"/>
<path d="M233.192 197.257V202.835H310.431C310.431 198.894 310.431 196.04 310.431 196.04C310.432 191.672 309.51 187.353 307.726 183.366C305.997 179.525 303.518 176.069 300.435 173.198C297.353 170.328 293.728 168.102 289.774 166.651C289.774 166.651 289.774 166.851 289.714 166.951C288.884 171.055 286.667 174.749 283.435 177.412C280.204 180.075 276.154 181.546 271.967 181.576C267.779 181.606 263.709 180.195 260.439 177.579C257.169 174.963 254.898 171.302 254.009 167.21C254.009 167 253.909 166.801 253.879 166.591C253.819 166.623 253.755 166.647 253.689 166.661C248.952 168.428 244.703 171.298 241.295 175.034C237.141 179.609 234.439 185.316 233.531 191.429C233.422 192.218 233.332 193.016 233.272 193.824C233.212 194.633 233.192 195.271 233.192 196V197.217V197.257Z" fill="white"/>
<path d="M266.862 142.632C267.021 143.935 267.652 145.135 268.636 146.005C269.619 146.876 270.887 147.356 272.2 147.356C273.514 147.356 274.782 146.876 275.765 146.005C276.748 145.135 277.38 143.935 277.539 142.632H266.862Z" fill="white"/>
<path d="M265 149.639C265.972 145.52 263.421 141.392 259.301 140.42C255.182 139.447 251.054 141.999 250.082 146.118C249.109 150.238 251.661 154.365 255.78 155.338C259.9 156.31 264.027 153.759 265 149.639Z" fill="#FFEB52"/>
<path d="M294.152 149.217C295.124 145.098 292.573 140.97 288.453 139.998C284.334 139.025 280.206 141.577 279.234 145.696C278.261 149.816 280.813 153.943 284.932 154.916C289.052 155.888 293.179 153.337 294.152 149.217Z" fill="#FFEB52"/>
<path d="M279.176 179.365H261.922C260.833 179.362 259.79 178.928 259.021 178.157C258.252 177.386 257.821 176.342 257.821 175.253C257.823 174.166 258.256 173.125 259.025 172.356C259.793 171.587 260.835 171.154 261.922 171.152H279.176C280.263 171.154 281.305 171.587 282.073 172.356C282.842 173.125 283.275 174.166 283.277 175.253C283.277 176.342 282.846 177.386 282.077 178.157C281.308 178.928 280.265 179.362 279.176 179.365Z" fill="#FEDB5C"/>
<path d="M177 92.9755C175.712 89.3032 176.211 86.8184 173.716 83.5552C167.33 75.3724 162.211 85.112 154.317 85.2018C146.434 85.112 140.047 74.5341 134.918 83.5552C122.833 104.851 133.072 129.848 135.816 133.581C138.39 137.073 141.743 138.45 143.54 142.432C147.621 151.413 139.847 162.75 129.419 165.933C133.491 168.388 149.108 172.579 154.177 172.489C158.947 172.908 175.553 171.142 173.677 165.234C163.248 162.041 161.013 151.443 165.095 142.432C166.901 138.44 169.735 137.732 172.319 134.229C175.024 130.507 179.574 100.32 177 92.9755Z" fill="url(#paint6_linear)"/>
<path d="M195.8 172.24C195.88 172.01 195.95 171.781 196.01 171.541C196.215 170.746 196.318 169.928 196.319 169.106V165.454C195.73 165.154 195.142 164.835 194.543 164.566C188.94 161.917 182.939 160.211 176.78 159.516C174.713 159.28 172.634 159.161 170.553 159.157H137.293C133.064 159.161 128.849 159.643 124.729 160.594C120.975 161.476 117.318 162.729 113.812 164.336V169.106C113.811 169.862 113.899 170.616 114.071 171.351L114.151 171.651C114.687 173.629 115.823 175.392 117.403 176.697C118.983 178.001 120.929 178.784 122.973 178.936C123.199 178.936 123.428 178.936 123.661 178.936H186.53C186.883 178.936 187.236 178.916 187.588 178.876C189.443 178.657 191.199 177.918 192.653 176.744C194.106 175.57 195.197 174.008 195.8 172.24Z" fill="white"/>
<path d="M96.568 143.769C94.7557 143.764 93.0191 143.043 91.7367 141.762C90.4543 140.482 89.7302 138.746 89.7223 136.934V108.992C89.7302 107.18 90.4543 105.444 91.7367 104.164C93.0191 102.883 94.7557 102.162 96.568 102.156C98.381 102.159 100.119 102.88 101.402 104.161C102.685 105.442 103.408 107.179 103.414 108.992V136.934C103.408 138.747 102.685 140.484 101.402 141.765C100.119 143.046 98.381 143.767 96.568 143.769Z" fill="#29ABE2"/>
<path d="M350.347 96.6876H323.523C321.94 96.672 320.426 96.0362 319.307 94.9167C318.187 93.7972 317.551 92.2833 317.536 90.7001C317.549 89.1162 318.184 87.6008 319.304 86.4807C320.424 85.3607 321.939 84.7257 323.523 84.7126H350.347C351.931 84.7257 353.446 85.3607 354.566 86.4807C355.686 87.6008 356.321 89.1162 356.334 90.7001C356.319 92.2833 355.683 93.7972 354.564 94.9167C353.444 96.0362 351.93 96.672 350.347 96.6876Z" fill="#F76540"/>
<path d="M251.554 21.0959C257.379 21.0959 262.102 16.3734 262.102 10.5479C262.102 4.72247 257.379 0 251.554 0C245.728 0 241.006 4.72247 241.006 10.5479C241.006 16.3734 245.728 21.0959 251.554 21.0959Z" fill="url(#paint7_linear)"/>
<path d="M251.554 35.1664C259.44 35.1664 265.834 28.773 265.834 20.8863C265.834 12.9996 259.44 6.6062 251.554 6.6062C243.667 6.6062 237.274 12.9996 237.274 20.8863C237.274 28.773 243.667 35.1664 251.554 35.1664Z" fill="url(#paint8_linear)"/>
<path d="M269.312 41.7252C270.935 31.7317 264.148 22.3153 254.155 20.6931C244.161 19.071 234.745 25.8573 233.123 35.8508C231.501 45.8442 238.287 55.2606 248.28 56.8828C258.274 58.5049 267.69 51.7186 269.312 41.7252Z" fill="url(#paint9_linear)"/>
<path d="M267.151 51.6221C266.921 50.9235 266.303 50.3647 265.524 50.7638C265.142 50.9936 264.82 51.3119 264.586 51.6919C264.162 49.3077 264.072 46.8762 264.317 44.467C264.447 42.1918 264.427 39.7669 262.94 37.8608C259.198 33.0709 256.194 38.7789 251.564 38.8588C246.933 38.9386 243.93 33.1008 240.187 37.8608C237.194 41.7427 240.187 47.4308 238.491 51.8316C238.78 51.0532 237.034 50.3148 236.425 50.6541C235.258 51.3027 235.757 54.6457 235.956 55.7135C236.067 56.4903 236.369 57.2275 236.834 57.859C236.944 57.9987 238.521 59.0166 238.511 58.797C238.591 61.4515 239.1 65.014 240.706 67.1995C242.313 69.3849 244.189 70.0635 245.237 72.3986C247.632 77.6875 243.081 84.3137 236.964 86.1797C239.349 87.6167 248.51 90.0816 251.484 90.0217C254.278 90.2712 264.017 89.2334 262.92 85.7706C256.803 83.8945 255.495 77.6875 257.93 72.3986C258.988 70.0635 260.924 69.2552 262.471 67.1995C264.018 65.1438 264.586 61.4515 264.666 58.797C264.666 59.0266 266.253 57.9688 266.363 57.7991C266.797 57.2104 267.085 56.526 267.201 55.8033C267.536 54.4275 267.518 52.9895 267.151 51.6221Z" fill="url(#paint10_linear)"/>
<path d="M276.052 88.5148C275.464 88.2454 274.865 88.0059 274.266 87.7664C270.821 86.4294 267.208 85.5764 263.529 85.2317C262.281 85.1219 261.044 85.0621 259.766 85.0621H239.698C237.153 85.058 234.614 85.2986 232.114 85.7806C229.828 86.2229 227.584 86.864 225.408 87.6965L225.159 87.7963C223.797 88.334 222.465 88.9435 221.167 89.6225V90.5107C221.633 91.8036 222.463 92.9338 223.557 93.7645C224.652 94.5952 225.964 95.0906 227.334 95.1909H227.833H273.059C273.308 95.2057 273.558 95.2057 273.807 95.1909C275.159 95.0487 276.441 94.5219 277.502 93.6729C278.564 92.8239 279.359 91.6883 279.795 90.4009C278.58 89.7091 277.331 89.0796 276.052 88.5148Z" fill="#F76540"/>
<path d="M241.116 57.3998C245.69 57.3998 249.398 53.6022 249.398 48.9176C249.398 44.2329 245.69 40.4353 241.116 40.4353C236.541 40.4353 232.833 44.2329 232.833 48.9176C232.833 53.6022 236.541 57.3998 241.116 57.3998Z" stroke="white" stroke-width="0.99" stroke-miterlimit="10"/>
<path d="M260.415 57.3998C264.99 57.3998 268.698 53.6022 268.698 48.9176C268.698 44.2329 264.99 40.4353 260.415 40.4353C255.841 40.4353 252.133 44.2329 252.133 48.9176C252.133 53.6022 255.841 57.3998 260.415 57.3998Z" stroke="white" stroke-width="0.99" stroke-miterlimit="10"/>
<path d="M243.88 59.4556C244.077 61.2163 244.917 62.8426 246.237 64.0235C247.558 65.2045 249.268 65.8573 251.04 65.8573C252.812 65.8573 254.521 65.2045 255.842 64.0235C257.163 62.8426 258.002 61.2163 258.2 59.4556H243.88Z" fill="url(#paint11_linear)"/>
<path d="M318.593 263.958C316.418 263.95 314.333 263.082 312.795 261.544C311.256 260.005 310.389 257.921 310.381 255.745V219.611C310.386 217.434 311.253 215.348 312.792 213.809C314.331 212.27 316.417 211.403 318.593 211.398C320.77 211.403 322.856 212.27 324.395 213.809C325.934 215.348 326.801 217.434 326.806 219.611V255.745C326.798 257.921 325.931 260.005 324.392 261.544C322.854 263.082 320.769 263.95 318.593 263.958Z" fill="#ED7E3D"/>
<path d="M350.217 213.853C365.412 213.853 377.73 201.535 377.73 186.34C377.73 171.145 365.412 158.828 350.217 158.828C335.023 158.828 322.705 171.145 322.705 186.34C322.705 201.535 335.023 213.853 350.217 213.853Z" fill="#D9E021"/>
<path d="M188.236 79.1545C185.332 73.9853 177.988 76.4402 175.832 71.4307C174.026 67.2195 178.277 63.2777 175.992 59.6354C174.086 56.5817 169.426 56.6416 168.587 56.6416C162.261 56.7215 160.814 62.0802 156.293 61.9505C150.755 61.7809 150.535 53.6978 143.19 50.255C136.035 46.902 125.547 49.5465 121.296 55.7535C117.983 60.5934 120.797 64.1659 116.456 70.3829C113.463 74.6739 110.808 74.8635 109.321 79.0647C107.914 83.0564 108.862 86.7686 109.601 89.5627C111.377 96.2488 114.69 99.1826 119.67 106.258C122.815 110.725 125.633 115.414 128.102 120.288C130.044 125.775 131.693 131.362 133.042 137.023C134.628 143.63 134.529 145.007 136.035 147.102C141.125 154.407 152.701 153.489 157.55 153.09C163.099 152.651 169.984 152.092 173.447 146.903C175.313 144.089 175.074 141.584 175.513 134.928C175.946 128.329 176.746 121.759 177.908 115.249C178.459 112.419 179.209 109.631 180.153 106.906C182.149 101.158 184.235 100.23 186.49 94.2928C188.266 89.5029 190.601 83.3657 188.236 79.1545ZM166.801 125.228C163.258 125.677 159.576 124.29 154.916 124.061C145.575 123.592 142.622 128.302 138.191 126.296C136.345 125.458 132.064 123.113 131.156 118.512C130.464 114.621 130.363 110.648 130.856 106.727C131.595 100.949 132.443 94.2928 136.844 91.329C143.131 87.048 151.144 94.3228 156.882 89.5827C158.765 87.8187 159.987 85.4624 160.345 82.9067C163.859 84.2776 167.028 86.4067 169.626 89.1424C172.223 91.878 174.186 95.1528 175.373 98.7336C177.648 105.799 175.862 113.183 174.904 116.696C173.018 123.342 171.591 124.619 166.801 125.228Z" fill="url(#paint12_linear)"/>
<path d="M145.925 130.646C145.925 132.764 146.766 134.794 148.263 136.292C149.76 137.789 151.791 138.63 153.908 138.63C156.025 138.63 158.056 137.789 159.553 136.292C161.05 134.794 161.891 132.764 161.891 130.646H145.925Z" fill="white"/>
<path d="M130.547 110.818C130.547 110.818 129.11 103.334 123.881 106.946C118.652 110.559 125.737 120.987 132.114 121.107L130.547 110.818Z" fill="url(#paint13_linear)"/>
<path d="M174.914 110.818C174.914 110.818 176.351 103.334 181.59 106.946C186.829 110.559 179.734 120.987 173.357 121.107L174.914 110.818Z" fill="url(#paint14_linear)"/>
<defs>
<linearGradient id="paint0_linear" x1="59.8048" y1="309.852" x2="333.911" y2="35.7451" gradientUnits="userSpaceOnUse">
<stop stop-color="#61A2F7"/>
<stop offset="1" stop-color="#4040A9"/>
</linearGradient>
<linearGradient id="paint1_linear" x1="168.857" y1="195.94" x2="136.385" y2="263.828" gradientUnits="userSpaceOnUse">
<stop stop-color="#953158"/>
<stop offset="1" stop-color="#630735"/>
</linearGradient>
<linearGradient id="paint2_linear" x1="147.871" y1="202.117" x2="147.871" y2="248.769" gradientUnits="userSpaceOnUse">
<stop stop-color="#FFAC67"/>
<stop offset="1" stop-color="#F4D593"/>
</linearGradient>
<linearGradient id="paint3_linear" x1="3714.69" y1="3255.71" x2="3366.18" y2="4461.04" gradientUnits="userSpaceOnUse">
<stop stop-color="#953158"/>
<stop offset="1" stop-color="#630735"/>
</linearGradient>
<linearGradient id="paint4_linear" x1="241.575" y1="125.188" x2="330.638" y2="125.188" gradientUnits="userSpaceOnUse">
<stop stop-color="#292942"/>
<stop offset="1" stop-color="#19002B"/>
</linearGradient>
<linearGradient id="paint5_linear" x1="271.332" y1="120.648" x2="271.332" y2="187.757" gradientUnits="userSpaceOnUse">
<stop stop-color="#FCDD93"/>
<stop offset="1" stop-color="#FFAC67"/>
</linearGradient>
<linearGradient id="paint6_linear" x1="153.458" y1="79.9155" x2="153.458" y2="172.548" gradientUnits="userSpaceOnUse">
<stop stop-color="#FCE196"/>
<stop offset="1" stop-color="#FFAB66"/>
</linearGradient>
<linearGradient id="paint7_linear" x1="251.554" y1="21.0859" x2="251.554" y2="0" gradientUnits="userSpaceOnUse">
<stop stop-color="#440B43"/>
<stop offset="1" stop-color="#761658"/>
</linearGradient>
<linearGradient id="paint8_linear" x1="7436.74" y1="1013.07" x2="7436.74" y2="195.961" gradientUnits="userSpaceOnUse">
<stop stop-color="#440B43"/>
<stop offset="1" stop-color="#761658"/>
</linearGradient>
<linearGradient id="paint9_linear" x1="8579.28" y1="2119.06" x2="8579.28" y2="771.679" gradientUnits="userSpaceOnUse">
<stop stop-color="#440B43"/>
<stop offset="1" stop-color="#761658"/>
</linearGradient>
<linearGradient id="paint10_linear" x1="251.559" y1="35.9485" x2="251.559" y2="90.057" gradientUnits="userSpaceOnUse">
<stop stop-color="#FCE297"/>
<stop offset="1" stop-color="#FFA25F"/>
</linearGradient>
<linearGradient id="paint11_linear" x1="3398.73" y1="461.294" x2="3604.22" y2="461.294" gradientUnits="userSpaceOnUse">
<stop stop-color="#292942"/>
<stop offset="1" stop-color="#19002B"/>
</linearGradient>
<linearGradient id="paint12_linear" x1="108.593" y1="101.089" x2="189.234" y2="101.089" gradientUnits="userSpaceOnUse">
<stop stop-color="#3D3D63"/>
<stop offset="1" stop-color="#2C004C"/>
</linearGradient>
<linearGradient id="paint13_linear" x1="127.088" y1="105.961" x2="127.088" y2="121.107" gradientUnits="userSpaceOnUse">
<stop stop-color="#FCE196"/>
<stop offset="1" stop-color="#FFAB66"/>
</linearGradient>
<linearGradient id="paint14_linear" x1="178.384" y1="105.961" x2="178.384" y2="121.107" gradientUnits="userSpaceOnUse">
<stop stop-color="#FCE196"/>
<stop offset="1" stop-color="#FFAB66"/>
</linearGradient>
</defs>
</svg>
