<svg width="132" height="142" viewBox="0 0 132 142" fill="none" xmlns="http://www.w3.org/2000/svg">
<g filter="url(#filter0_d)">
<path d="M53.1141 27.5273C49.4789 27.7783 44.3396 28.4056 42.2086 28.782C42.0832 28.782 41.8325 28.782 41.7072 28.782C41.5818 28.782 41.4565 28.6565 41.2058 28.6565L40.9551 28.531C40.9551 28.531 40.9551 28.782 40.9551 29.0329C40.9551 29.7856 41.7072 30.4129 42.4593 30.2875C44.7156 30.0366 49.4789 29.4093 52.9888 29.1583H53.1141L53.2395 27.5273H53.1141Z" fill="#3F1369"/>
<path d="M28.9215 68.6791C30.3004 68.4282 31.6792 68.3027 32.1806 68.1772C33.0581 67.9263 33.6848 67.5499 33.9355 66.6717C34.0609 66.2953 34.0609 65.9189 33.9355 65.4171C33.5595 64.2879 32.9327 62.0296 32.5567 60.2732C32.306 59.395 31.5539 58.8931 30.6764 59.0186H30.5511V59.1441C31.0525 60.775 31.8046 63.7861 32.306 65.4171C32.4313 65.7935 32.5567 66.2953 32.4313 66.5462C32.306 67.0481 31.9299 67.4245 30.9271 67.6754C30.4257 67.8009 29.6736 67.9263 28.9215 67.9263C28.0441 68.0518 25.9131 68.4282 25.9131 68.4282C26.0384 68.8045 26.2891 68.8045 26.6652 68.6791C27.4173 68.93 28.2948 68.8045 28.9215 68.6791Z" fill="#3F1369"/>
<path d="M37.696 24.015C37.696 31.5427 39.0749 49.2327 42.9608 64.9153C43.0861 65.4171 42.9608 65.9189 42.7101 66.4208C42.4594 66.7972 41.958 67.0481 41.4566 67.0481C40.0777 67.1735 37.9467 67.299 36.8186 67.4245H36.6932V67.5499C36.8186 67.9263 37.0693 67.8009 37.4453 67.8009C38.4481 67.6754 40.4538 67.5499 42.4594 67.4245C42.8354 67.4245 43.2115 67.299 43.5875 67.0481C44.2143 66.5462 44.465 65.668 44.3396 64.9153C40.5791 50.1109 39.0749 32.0445 39.0749 23.8896C39.0749 23.1368 38.3228 22.635 37.696 22.7604L37.1946 22.8859L37.32 23.0113C37.5707 23.2623 37.696 23.6387 37.696 24.015Z" fill="#3F1369"/>
<path d="M51.8607 31.4168C51.8607 30.915 51.3593 30.5386 50.8579 30.5386H50.4818L50.6072 30.664C50.7325 30.915 50.8579 31.1659 50.8579 31.4168C51.1086 36.9371 52.2367 50.3614 52.9888 57.889V58.0145C53.6156 58.0145 54.117 57.5126 53.9916 56.8853C53.4902 52.6197 52.1114 36.3098 51.8607 31.4168C51.8607 31.5423 51.8607 31.4168 51.8607 31.4168Z" fill="#3F1369"/>
<path d="M47.2227 67.0479C49.9804 66.9225 59.8831 66.6715 62.6408 66.5461C63.1422 66.5461 63.5183 66.4206 63.8943 66.1697C64.3957 65.7933 64.6464 65.166 64.6464 64.5387C64.6464 64.5387 64.7718 60.7749 64.6464 59.1439C64.6464 58.7675 64.2704 58.5166 63.8943 58.5166H63.769L63.8943 58.7675C64.0197 59.0184 64.0197 59.2694 64.0197 59.5203L64.145 64.5387C64.145 64.9151 64.0197 65.2915 63.8943 65.5424C63.5183 66.0442 63.0169 66.2952 62.5155 66.2952C59.3817 66.2952 50.2311 66.5461 47.0973 66.797H46.972C46.8466 66.797 46.7213 66.797 46.5959 66.797H46.3452V66.9225C46.5959 67.0479 46.8466 67.0479 47.2227 67.0479Z" fill="#3F1369"/>
<path d="M62.5155 55.7564C60.5099 55.7564 58.0029 55.8819 56.4987 55.8819H56.3733C56.1226 55.8819 55.9973 55.8819 55.7465 55.7564L55.4958 55.631V56.0074C55.4958 56.5092 55.8719 56.8856 56.3733 56.8856C58.1282 56.7601 61.638 56.7601 62.7662 56.7601C63.393 56.7601 64.0197 56.3837 64.3958 55.8819C64.6465 55.5055 64.7718 55.1291 64.7718 54.6273V51.9926C64.6465 47.8524 64.6465 41.203 64.6465 35.9336C64.6465 33.1735 64.6465 30.6643 64.6465 29.1587C64.6465 29.0333 64.6465 28.9078 64.7718 28.9078C64.8972 28.9078 64.8972 28.7824 65.0225 28.7824H65.3986C70.1619 28.9078 73.6717 29.0333 75.4266 29.1587C76.3041 29.1587 76.9308 28.5314 76.9308 27.7787V27.2768L76.6801 27.4023C76.6801 27.4023 76.4294 27.5277 76.1787 27.5277H76.0534C73.1703 27.2768 67.9056 27.1514 64.8972 27.1514H64.5211C64.3958 27.1514 64.1451 27.2768 64.0197 27.4023C63.8944 27.5278 63.769 27.6532 63.769 27.9041C63.769 32.4207 64.0197 45.3432 64.1451 51.4908V53.8745C64.1451 54.2509 64.0197 54.6273 63.8944 54.8782C63.6437 55.5055 63.1423 55.7564 62.5155 55.7564Z" fill="#3F1369"/>
<path d="M78.9365 27.5278C78.9365 28.5315 79.6886 29.4097 80.8168 29.5352C84.0759 29.9116 88.4632 30.2879 92.2237 31.1662C92.3491 31.1662 92.4744 31.2916 92.4744 31.4171C92.3491 37.3138 90.8449 48.4798 89.2153 55.7565C89.0899 56.2583 89.2153 56.8856 89.5913 57.3875C89.9674 57.8893 90.4688 58.1402 90.9702 58.2657C91.7223 58.3912 93.4772 58.6421 94.9814 58.7676C95.2321 58.7676 95.7335 58.893 96.2349 58.893C96.987 59.0185 97.6138 58.5166 97.7392 57.7639L97.4885 57.8893C97.3631 57.8893 97.1124 58.0148 96.987 58.0148C96.8617 58.0148 96.8617 58.0148 96.7363 58.0148C95.2321 57.7639 93.6026 57.6384 92.3491 57.3875C91.8477 57.3875 91.4716 57.0111 91.0956 56.6347C90.8449 56.2583 90.7195 55.7565 90.8449 55.2547C92.4744 47.9779 93.7279 36.1846 93.9786 30.288C93.9786 30.037 93.7279 29.7861 93.4772 29.6606C89.5913 28.9079 84.828 28.2806 81.6942 27.9042C80.8168 27.7787 80.0647 27.026 80.0647 26.1477C80.0647 25.0186 80.0647 23.3876 80.0647 21.8821C80.0647 21.5057 80.19 21.1293 80.3154 20.8784L80.4407 20.7529H80.19C79.6886 20.7529 79.1872 21.0039 79.0619 21.6312C79.0619 21.7566 79.0619 21.8821 79.0619 22.0075C79.0619 22.6348 79.0619 23.764 79.0619 24.7677C78.9365 25.8968 78.9365 27.026 78.9365 27.5278Z" fill="#3F1369"/>
<path d="M104.383 68.6787C103.38 68.5533 102.126 68.3023 100.873 68.1769C100.497 68.1769 100.121 67.926 99.87 67.8005C99.3686 67.2987 99.1179 66.5459 99.3686 65.9186C100.497 62.6566 102.502 54.3762 103.38 49.9851C103.38 49.6087 103.254 49.3578 102.878 49.2323C102.252 49.1069 101.249 48.8559 100.497 48.7305H100.371L100.246 49.1069C100.121 49.6087 100.497 50.1105 100.998 50.1105H101.249C101.374 50.1105 101.5 50.3615 101.5 50.4869C100.747 54.6271 98.7418 62.1548 97.6136 65.6677C97.3629 66.4204 97.6136 67.2987 98.2404 67.8005C98.4911 68.0514 98.8672 68.1769 99.3686 68.3023C100.622 68.4278 102.001 68.6787 103.004 68.8042H103.129C103.63 68.9297 104.007 68.9297 104.257 68.9297C104.633 68.9297 105.009 68.9297 105.135 68.5533V68.4278H104.884C104.633 68.6787 104.508 68.6787 104.383 68.6787Z" fill="#3F1369"/>
<path d="M104.633 32.4202L104.132 32.2948C103.505 32.0439 102.502 31.7929 102.126 31.6675H102.001V32.1693C102.001 32.7966 102.377 33.4239 103.004 33.6749C103.254 33.6749 103.38 33.9258 103.254 34.0512C103.254 35.0549 103.004 37.0623 102.878 38.5678C102.753 39.5715 103.505 40.4497 104.383 40.7007V40.5752C104.508 38.5678 104.884 34.804 104.884 33.0475C105.135 32.7966 105.009 32.5457 104.633 32.4202Z" fill="#3F1369"/>
<path d="M50.3565 68.9301C51.2339 68.9301 51.986 69.5574 52.1114 70.4356C52.2367 71.4393 52.4874 72.6939 52.7381 73.9485L52.8635 74.9522C52.9888 75.3286 52.8635 75.705 52.7381 75.9559L52.6128 76.2068H52.8635C53.4902 76.2068 54.117 75.5795 53.9916 74.9522L53.7409 73.5721C53.4902 72.3175 53.3649 71.1884 53.2395 70.1847C53.1142 69.181 52.2367 68.5537 51.2339 68.5537C47.2227 68.6792 33.4341 69.5574 27.668 70.4356C27.5426 70.4356 27.5426 70.4356 27.4173 70.4356C26.9159 70.5611 26.5398 70.9375 26.6652 71.4393L26.7905 71.3138C27.0412 71.0629 27.4173 70.9375 27.7933 70.812C33.8102 69.8083 46.5959 69.0556 50.3565 68.9301Z" fill="#3F1369"/>
<path d="M71.1646 77.7117C70.9139 80.2209 70.0365 86.9958 69.7858 89.505C69.7858 89.6305 69.6604 89.7559 69.4097 89.7559C68.9083 89.7559 67.9055 89.7559 67.028 89.7559C66.4013 89.7559 65.7745 90.2578 65.7745 91.0106H66.1506H66.652C67.6548 91.0106 68.783 91.0106 69.7858 91.0106C70.0365 91.0106 70.2872 90.7596 70.4125 90.5087C70.9139 87.2467 71.7914 79.7191 72.0421 76.959V76.8335C71.666 76.8335 71.1646 77.2099 71.1646 77.7117Z" fill="#3F1369"/>
<path d="M64.3958 109.453C64.1451 110.206 63.769 111.21 63.5183 112.088C63.5183 112.214 63.393 112.214 63.2676 112.214H63.1423C62.1394 111.461 61.0113 110.206 60.2592 109.453C59.7578 108.952 59.131 108.701 58.3789 108.701H57.5015L57.7522 108.952C59.0057 110.332 61.3873 112.715 63.0169 113.97C63.1423 114.096 63.2676 114.096 63.393 114.096C63.6437 114.096 63.769 113.97 63.8944 113.719C64.3958 112.465 65.0225 110.332 65.3986 108.952V108.826C64.8972 108.701 64.5211 109.077 64.3958 109.453Z" fill="#3F1369"/>
<path d="M44.5902 99.2911C50.3564 99.9184 60.8859 100.42 65.7745 100.42C66.0252 100.42 66.2759 100.42 66.5266 100.42C66.7773 100.42 67.028 100.169 67.1534 99.9184C67.1534 99.542 67.4041 98.4129 67.4041 98.0365V97.911H66.652V98.0365C66.652 98.2874 66.652 98.2874 66.652 98.5383V98.7893C66.652 98.9147 66.5266 99.0402 66.2759 99.0402C62.5154 99.0402 52.1113 98.5383 45.593 97.911C44.3395 97.7856 43.3367 98.5383 42.9607 99.7929C42.9607 100.044 42.8353 100.295 42.8353 100.295L42.9607 100.169C43.3367 99.542 43.9635 99.1656 44.5902 99.2911Z" fill="#3F1369"/>
<path d="M85.9562 97.9116C83.8252 98.037 78.6858 98.4134 76.5549 98.6643C75.9281 98.6643 75.4267 99.1662 75.176 99.668L74.9253 100.17H75.176C77.9337 100.044 83.1984 99.5426 86.4576 99.1662C87.0843 99.1662 87.5857 99.4171 87.9618 99.919L88.0871 100.044C88.0871 100.044 87.9618 99.668 87.9618 99.1662C87.7111 98.4134 86.959 97.7861 85.9562 97.9116Z" fill="#3F1369"/>
<path d="M64.0197 68.5536C68.9084 68.5536 76.3041 68.6791 81.0674 68.93C81.4435 68.93 81.6942 69.0554 81.9449 69.3064L82.0702 69.4318V69.3064C82.1956 68.8045 81.8195 68.4281 81.1928 68.4281C81.0674 68.4281 80.9421 68.4281 80.8167 68.4281C76.0534 68.1772 68.6577 68.0518 63.769 68.0518C60.7606 68.0518 58.2536 68.0518 56.7494 68.1772C56.624 68.1772 56.624 68.1772 56.4987 68.1772C55.8719 68.3027 55.6212 68.5536 55.6212 69.1809L55.8719 69.0554C56.1226 68.8045 56.4987 68.8045 56.7494 68.6791C58.5043 68.5536 61.0113 68.5536 64.0197 68.5536Z" fill="#3F1369"/>
<path d="M103.505 70.4357C103.255 70.3102 103.129 70.3102 102.878 70.1847C99.3686 69.8083 90.3434 68.8047 86.8336 68.6792H86.7082C85.7054 68.6792 84.9533 69.3065 84.7026 70.3102C83.073 77.5869 78.5604 90.7603 76.9308 95.4024V95.5278C76.8055 96.406 77.5576 97.1588 78.435 97.1588H78.5604L78.435 96.7824C78.1843 96.2806 78.1843 95.7787 78.3097 95.4024C79.3125 92.6422 84.2012 78.7161 85.9561 70.812C86.0814 70.0593 86.8336 69.432 87.5857 69.432H87.711C91.2208 69.6829 99.494 70.4357 102.753 70.6866C103.255 70.6866 103.631 70.9375 103.881 71.3139L104.007 71.5648V71.4393C104.132 70.9375 104.007 70.6866 103.505 70.4357Z" fill="#3F1369"/>
<path d="M92.8504 78.8409C91.5969 81.6011 89.0899 87.1213 88.2124 88.6269C88.2124 88.7523 88.0871 88.7523 87.9617 88.7523C87.335 88.7523 86.8336 89.1287 86.5829 89.756L86.4575 90.1324H86.7082C86.9589 90.1324 87.335 90.1324 87.711 90.1324C88.2124 90.1324 88.5885 90.1324 88.8392 90.0069C89.0899 90.0069 89.2152 89.8815 89.3406 89.756C90.5941 87.6232 93.7278 80.8483 95.1067 77.5863L95.2321 77.4608C94.2293 77.3354 93.2264 77.8372 92.8504 78.8409Z" fill="#3F1369"/>
<path d="M56.1226 85.6163C55.8719 84.3617 55.3705 81.727 55.1198 80.7233C54.9944 79.8451 54.117 79.0923 53.2395 79.0923C51.986 79.0923 50.1057 79.0923 48.3508 79.0923H46.4706C44.7156 79.0923 42.5847 79.0923 40.7044 78.9668C40.7044 78.8414 40.5791 78.5905 40.4537 78.2141C40.203 77.4613 39.4509 76.9595 38.5735 76.9595H38.3228L38.4481 77.2104C38.5735 77.4613 38.6988 77.7122 38.6988 77.9632C38.9495 78.7159 39.3256 79.4687 39.4509 79.9705V80.096H39.5763C41.9579 80.096 44.3396 80.2215 46.5959 80.2215C48.6015 80.2215 50.7325 80.2214 52.4874 80.3469C53.3649 80.3469 53.9916 80.9742 54.117 81.727C54.3677 82.7307 54.7437 84.6126 54.9944 85.8672C55.1198 86.2436 54.9944 86.62 54.8691 86.8709L54.7437 87.1218H54.8691C55.6212 86.8709 56.2479 86.369 56.1226 85.6163Z" fill="#3F1369"/>
<path d="M57.0001 97.1589C57.7522 97.1589 58.2536 96.5316 58.2536 95.9043C58.2536 95.7788 58.2536 95.7788 58.2536 95.6534C58.2536 95.6534 57.3762 91.7641 57.2508 91.0113C57.0001 90.1331 56.248 89.5058 55.3705 89.5058C52.4875 89.3804 48.1002 89.1294 45.2171 89.004C45.0918 88.8785 45.0918 88.6276 44.9664 88.3767C44.5904 87.6239 43.8383 87.1221 43.0862 87.1221H42.9608L43.0862 87.373C43.0862 87.373 43.0862 87.4985 43.2115 87.6239C43.4622 88.2512 43.9636 89.5058 44.3397 90.1331V90.2586H44.465C47.0974 90.5095 51.61 90.7604 54.9945 90.8859C55.7466 90.8859 56.4987 91.5132 56.6241 92.266C56.7494 93.0187 57.3762 95.9043 57.5015 95.9043C57.6269 96.4062 57.6269 96.908 57.3762 97.1589H57.0001Z" fill="#3F1369"/>
<path d="M95.3574 67.4244H95.1067C94.9813 67.4244 94.856 67.4244 94.7306 67.4244C87.2096 66.6717 75.4266 66.2953 68.4069 66.1698C68.0309 66.1698 67.6548 66.0444 67.4041 65.7934C66.9027 65.4171 66.652 65.0407 66.652 64.2879C66.652 60.775 66.9027 46.8489 67.1534 38.0666L67.2788 30.7899C67.2788 30.539 67.4041 30.288 67.4041 30.0371H67.6548C67.1534 30.0371 66.7774 30.4135 66.7774 30.7899V30.9153L66.5267 38.5684C66.4013 44.2142 66.276 51.8673 66.1506 57.3876C66.1506 60.775 66.0253 63.2842 66.0253 64.5388C66.0253 65.1661 66.276 65.7934 66.9027 66.2953C67.2788 66.5462 67.6548 66.6717 68.1562 66.6717C74.1731 66.6717 90.4687 67.5499 94.3546 67.8008C94.7306 67.9263 95.1067 67.8008 95.3574 67.4244Z" fill="#3F1369"/>
<path d="M87.711 53.2474C85.0787 52.9964 79.3125 52.4946 76.6802 52.3691H76.5548C76.5548 52.9964 76.9309 53.4983 77.5576 53.4983C79.9393 53.6237 85.3294 54.1256 87.335 54.251C87.9617 54.251 88.4631 53.8747 88.4631 53.3728V53.2474H88.2124C88.0871 53.2474 87.9617 53.2474 87.8364 53.2474C87.8364 53.2474 87.8364 53.2474 87.711 53.2474Z" fill="#3F1369"/>
<path d="M89.466 39.6974C86.7082 39.3211 80.9421 38.5683 77.683 38.3174H77.5576C77.5576 39.0701 78.059 39.6975 78.8111 39.8229C81.3181 40.0738 86.7082 40.7011 88.7139 40.9521C89.5913 41.0775 90.3434 40.4502 90.3434 39.6974V39.572L90.0927 39.6974C89.9674 39.6974 89.7167 39.6974 89.466 39.6974Z" fill="#3F1369"/>
<path d="M28.5454 50.7383C29.5482 50.6128 30.175 49.7346 30.0496 48.8564C29.6736 45.8453 28.7961 39.4468 28.6708 37.063C28.6708 36.9376 28.7961 36.8121 28.9215 36.8121C28.9215 36.8121 29.0468 36.8121 29.1722 36.8121C29.9243 36.6867 30.3004 35.9339 30.3004 35.3066V35.0557H30.175C29.4229 35.0557 28.2947 35.3066 27.668 35.432L27.1666 35.5575C26.9159 35.683 26.7905 35.8084 26.7905 36.0594C27.0412 39.1959 28.044 47.0999 28.6708 50.6128L28.5454 50.7383Z" fill="#3F1369"/>
<path d="M42.6886 28.0295C44.8195 27.6531 49.8336 27.0258 53.7195 26.7749C54.0955 26.7749 54.3462 27.0258 54.3462 27.4022C54.4716 32.4206 55.5997 49.4833 55.9758 54.2508C55.9758 54.7526 56.3518 55.129 56.8532 55.129C58.4828 55.0036 61.3659 55.0036 62.9954 55.0036C63.2461 55.0036 63.4968 54.8781 63.6222 54.7526C63.7475 54.6272 63.8729 54.3763 63.8729 54.1253V51.3652C63.7475 44.5903 63.4968 30.5387 63.4968 27.0258C63.4968 26.6494 63.7475 26.3985 64.1236 26.3985C64.4996 26.3985 64.8757 26.3985 65.3771 26.3985C68.3855 26.3985 73.7756 26.524 76.5333 26.7749C77.0347 26.7749 77.5361 26.3985 77.5361 25.8967C77.5361 24.642 77.5361 22.5092 77.6615 21.5055C77.6615 21.0037 77.2854 20.6273 76.784 20.6273C73.5249 20.1255 70.0151 20 66.2545 20C55.2237 20 45.9477 21.1291 42.3125 21.8819C41.9365 22.0074 41.5604 22.3838 41.5604 22.7601C41.5604 24.7675 41.5604 26.1476 41.5604 27.0258C41.5604 27.6531 42.0618 28.0295 42.6886 28.0295Z" fill="white"/>
<path d="M56.1011 97.159C56.3518 97.159 56.6025 97.0336 56.8532 96.7826C56.9786 96.5317 57.1039 96.2808 56.9786 96.0299L56.7279 95.1516C56.4772 94.148 56.2265 93.0188 55.9758 92.266C55.8504 91.8897 55.4744 91.5133 55.0983 91.5133C51.7139 91.3878 47.2012 91.1369 44.4435 90.886C44.1928 90.886 44.0675 90.7605 43.9421 90.5096C43.3154 89.5059 42.6886 88.1258 42.3125 87.3731C42.1872 87.1222 42.1872 86.9967 42.3125 86.7458C42.4379 86.4948 42.6886 86.4948 42.9393 86.4948C45.9477 86.6203 51.0871 86.7458 53.7195 86.8712C53.9702 86.8712 54.2209 86.7458 54.4716 86.4948C54.5969 86.2439 54.7223 85.993 54.5969 85.7421V85.6166C54.3462 84.362 53.9702 82.6056 53.7195 81.6019C53.5941 81.2255 53.2181 80.8491 52.842 80.8491C51.0871 80.8491 49.0815 80.8491 46.9505 80.7237C44.5689 80.7237 41.9365 80.7237 39.5548 80.5982C39.3041 80.5982 39.0534 80.4727 38.9281 80.2218C38.552 79.469 38.0506 78.2144 37.6746 77.2108C37.5492 76.9598 37.6746 76.8344 37.6746 76.5834C37.7999 76.458 37.9253 76.3325 38.176 76.3325C39.0534 76.3325 40.0562 76.3325 41.059 76.3325C44.4435 76.3325 47.9533 76.2071 51.5885 76.2071C51.8392 76.2071 52.0899 76.0816 52.3406 75.8307C52.466 75.5798 52.5913 75.3288 52.5913 75.0779L52.466 74.0742C52.2153 72.8196 51.9646 71.4396 51.8392 70.4359C51.7139 69.934 51.3378 69.6831 50.9618 69.6831C47.2012 69.8086 34.4154 70.5613 28.524 71.3141C28.2733 71.3141 28.0226 71.565 27.8972 71.6905C27.7719 71.9414 27.7719 72.1923 27.7719 72.4432C29.7775 77.9635 35.9197 90.2587 40.0562 95.528C40.1816 95.6535 40.4323 95.7789 40.683 95.9044C43.8168 96.4062 53.0927 97.0336 56.1011 97.159Z" fill="white"/>
<path d="M47.5772 65.7936C50.8363 65.5427 60.2376 65.4172 63.3714 65.2918C63.6221 65.2918 63.8728 65.1663 63.9981 65.0408C64.1235 64.9154 64.2489 64.6645 64.2489 64.4135L64.1235 59.3951C64.1235 58.8933 63.7474 58.5169 63.246 58.5169C61.3658 58.5169 55.8503 58.6423 53.218 58.7678C52.8419 58.7678 52.5912 58.5169 52.5912 58.1405C51.8391 50.7383 50.711 37.314 50.4603 31.6683C50.4603 31.1664 49.9589 30.79 49.4575 30.79C46.9504 31.041 44.1927 31.2919 42.6885 31.5428C42.1871 31.6683 41.9364 32.0446 41.9364 32.421C42.1871 40.576 45.0702 58.5169 46.6997 65.0408C46.6997 65.5427 47.0758 65.7936 47.5772 65.7936Z" fill="white"/>
<path d="M96.3293 65.8818C96.7053 64.7526 97.3321 62.6198 97.5828 61.3652C97.7081 61.1143 97.5828 60.8634 97.4574 60.6124C97.3321 60.3615 97.0814 60.2361 96.8307 60.2361C91.4406 59.4833 81.0365 58.7305 76.5239 58.6051C76.3985 58.6051 76.1478 58.4796 76.0225 58.3541C75.8971 58.2287 75.8971 58.1032 75.8971 57.8523C76.0225 56.3468 76.2732 53.5866 76.3985 51.9556C76.3985 51.5793 76.6492 51.3283 77.0253 51.3283C79.2816 51.4538 85.4238 51.9556 88.3068 52.2066C88.8082 52.2066 89.1843 51.9556 89.3096 51.4538C89.5603 50.0737 89.9364 47.69 90.0617 46.3099C90.0617 46.059 90.0617 45.8081 89.9364 45.5571C89.811 45.3062 89.5603 45.1808 89.3096 45.1808C86.0505 44.8044 79.783 44.3025 77.5267 44.0516C77.1506 44.0516 76.8999 43.6752 76.8999 43.4243C77.0253 41.9188 77.1506 39.4096 77.276 37.7786C77.276 37.4022 77.652 37.1513 78.0281 37.1513C81.1618 37.4022 87.0533 38.0295 90.0617 38.5313H90.1871C90.6885 38.5313 91.0646 38.155 91.0646 37.6531C91.1899 36.7749 91.4406 34.3911 91.566 32.3838C91.566 31.8819 91.3153 31.5055 90.8139 31.3801C83.6689 30.6273 76.5239 30.1255 69.7549 30C69.2535 30 68.8775 30.3764 68.8775 30.8782L68.7521 36.0221C68.5014 44.8044 68.1254 60.6124 68 64.3763C68 64.6272 68.1254 64.8781 68.2507 65.0036C68.3761 65.129 68.6268 65.2545 68.8775 65.2545C75.7718 65.2545 87.8054 65.7563 95.4518 66.5091C95.4518 66.5091 95.4518 66.5091 95.5772 66.5091C95.9532 66.5091 96.2039 66.2582 96.3293 65.8818Z" fill="white"/>
<path d="M111.882 29.5352C111.882 29.2843 111.757 28.9079 111.506 28.7824C102.732 23.1367 84.4303 21.1293 82.4247 20.8784C81.9233 20.8784 81.4219 21.2548 81.4219 21.7566C81.4219 23.2622 81.4219 25.0186 81.4219 26.1478C81.4219 26.6496 81.7979 27.026 82.2993 27.026C85.8092 27.4024 90.9485 28.0297 94.8344 28.9079C94.9598 29.0334 95.2105 29.2843 95.2105 29.6607C95.0851 35.6828 93.8316 47.8525 92.2021 55.2547C92.2021 55.5056 92.2021 55.7565 92.3274 56.0074C92.4528 56.2584 92.7035 56.3838 92.9542 56.3838C93.957 56.5093 95.7119 56.7602 97.4668 57.0111C97.9682 57.1366 98.3442 56.7602 98.4696 56.2584C98.8456 54.6274 99.5978 50.989 100.099 48.4798C100.099 48.1034 100.475 47.8525 100.851 47.978C102.105 48.2289 103.358 48.4798 104.361 48.7307C104.737 48.8562 104.862 49.1071 104.862 49.4835C104.236 53.4982 101.979 62.6569 100.726 66.2952C100.601 66.5462 100.726 66.7971 100.851 67.048C100.977 67.2989 101.227 67.4244 101.478 67.4244C102.857 67.5498 104.11 67.8008 105.113 67.9262H105.239C105.615 67.9262 105.991 67.6753 106.116 67.2989C107.871 62.0296 109.25 56.3838 110.253 50.8636C110.378 50.2362 110.253 49.6089 110.127 49.1071C110.002 48.7307 109.877 48.3543 109.626 47.8525C109.5 47.6016 109.375 47.2252 109.25 46.9743C109.124 46.5979 109.124 46.096 109.5 45.7197C109.751 45.4687 109.877 45.2178 110.127 44.9669C110.503 44.5905 110.754 44.0887 111.005 43.7123C111.13 43.4614 111.255 43.085 111.381 42.8341C111.757 36.561 111.882 31.5426 111.882 29.5352ZM105.865 40.9521C105.865 41.3285 105.489 41.5795 105.113 41.454C104.11 41.2031 102.982 40.9521 101.729 40.7012C101.353 40.5758 101.227 40.3248 101.227 39.9485C101.478 37.9411 101.854 33.8009 101.854 31.4171C101.854 31.0407 102.105 30.7898 102.481 30.7898H102.606C103.609 31.0407 104.988 31.4171 105.865 31.7935C106.367 31.919 106.492 32.1699 106.492 32.5463C106.367 34.1773 106.116 38.5684 105.865 40.9521Z" fill="white"/>
<path d="M87.188 100.044C83.8036 100.546 78.1628 100.922 75.2797 101.048C75.029 101.048 74.9037 100.922 74.7783 100.797C74.6529 100.671 74.6529 100.42 74.6529 100.17C76.6586 94.2729 80.7951 78.5903 82.2993 70.8117C82.2993 70.5608 82.2993 70.3098 82.174 70.0589C82.0486 69.808 81.7979 69.6825 81.5472 69.6825C76.7839 69.4316 69.3882 69.3062 64.6249 69.3062C61.6165 69.3062 59.1094 69.3062 57.6052 69.4316C57.3545 69.4316 57.1038 69.5571 56.9785 69.808C56.8531 70.0589 56.7278 70.3098 56.7278 70.5608C57.4799 76.332 59.8616 92.8928 60.4883 96.6566C60.6137 97.033 60.9897 97.4094 61.3658 97.4094C62.9953 97.4094 65.5023 97.5348 67.3826 97.5348C67.7587 97.5348 68.0094 97.5348 68.2601 97.5348C68.3854 97.5348 68.6361 97.6603 68.7615 97.7858C68.8868 97.9112 68.8868 98.1621 68.8868 98.2876C68.7615 99.0404 68.6361 100.17 68.5108 100.922C68.5108 101.173 68.2601 101.424 67.884 101.424C67.3826 101.424 66.8812 101.424 66.2544 101.424C61.1151 101.424 51.7138 101.048 45.1955 100.295C44.8195 100.295 44.4434 100.42 44.3181 100.797C44.1927 101.173 44.1927 101.424 44.4434 101.8C49.0814 107.697 56.9785 115.978 65.377 121.874C65.5023 122 65.753 122 65.8784 122C66.2544 122 66.5051 121.874 66.6305 121.498C68.3854 118.487 71.5192 111.586 72.7727 108.575C72.898 108.324 73.1487 108.199 73.3994 108.199C76.9093 108.074 80.2937 107.697 82.0486 107.572H82.2993C82.55 107.572 82.8008 107.446 82.9261 107.321L83.3022 106.819C84.8064 105.188 86.1852 103.557 87.9401 101.299C88.0655 101.048 88.0655 100.797 88.0655 100.546C87.6894 100.17 87.4387 99.9186 87.188 100.044ZM66.6305 108.826C66.0037 110.834 65.377 113.092 64.6249 114.848C64.4995 115.099 64.2488 115.225 63.9981 115.225C63.8728 115.225 63.7474 115.225 63.6221 115.099C61.2404 113.217 58.608 110.583 56.9785 108.575C56.8531 108.45 56.8531 108.324 56.9785 108.199C57.1038 108.074 57.2292 107.948 57.3545 107.948V107.823V107.948C60.8644 108.199 65.0009 108.199 66.1291 108.199C66.2544 108.199 66.5051 108.324 66.5051 108.45C66.6305 108.45 66.7558 108.701 66.6305 108.826ZM71.6445 91.2618C71.6445 91.5127 71.3938 91.7636 71.0178 91.7636C70.015 91.7636 68.3854 91.7636 67.1319 91.7636C66.7558 91.7636 66.3798 91.7636 66.1291 91.7636C65.753 91.7636 65.5023 91.5127 65.5023 91.1363V87.9998C65.377 84.1105 65.377 78.8412 65.2516 76.7083C65.2516 76.5829 65.2516 76.332 65.377 76.2065C65.5023 76.081 65.6277 75.9556 65.8784 75.9556V75.8301V75.9556C67.3826 75.9556 69.2629 75.9556 70.8924 75.9556H72.6473C72.7727 75.9556 73.0234 76.081 73.1487 76.2065C73.2741 76.332 73.2741 76.5829 73.2741 76.7083C73.1487 79.5939 72.1459 88.2507 71.6445 91.2618Z" fill="white"/>
<path d="M103.108 71.3137C99.8485 70.9373 91.7007 70.1845 88.1909 70.0591C87.6895 70.0591 87.3134 70.31 87.1881 70.8118C85.4331 78.8413 80.4191 93.0184 79.4163 95.7785C79.291 96.0295 79.4163 96.4058 79.5417 96.6568C79.667 96.9077 80.0431 97.0331 80.2938 97.0331C80.2938 97.0331 80.2938 97.0331 80.4191 97.0331C83.9289 96.7822 89.4444 96.2804 91.0739 96.1549C91.3246 96.1549 91.5753 96.0295 91.7007 95.7785C94.3331 92.3911 101.478 79.4686 103.985 72.6938C104.11 72.4428 104.11 72.1919 103.86 71.941C103.734 71.4392 103.484 71.3137 103.108 71.3137ZM96.5894 77.4613C95.3359 80.5978 91.5753 88.6273 90.3218 90.5092C90.1965 90.6346 90.0711 90.7601 89.8204 90.7601C89.1937 90.7601 88.0655 90.8856 87.1881 90.8856H87.0627C86.812 90.8856 86.6867 90.7601 86.5613 90.6346C86.436 90.5092 86.436 90.2583 86.5613 90.0073C88.0655 86.6199 90.5725 80.0959 91.5753 76.7085C91.7007 76.4576 91.9514 76.2067 92.2021 76.2067C93.3303 76.2067 94.9598 76.3321 96.2133 76.4576C96.464 76.4576 96.5894 76.583 96.7147 76.7085C96.5894 77.0849 96.5894 77.2103 96.5894 77.4613Z" fill="white"/>
<path d="M42.6885 65.0415C38.8026 49.3589 37.4238 31.5434 37.4238 23.8903C37.4238 23.6394 37.2984 23.3885 37.1731 23.263C36.9224 23.0121 36.6717 22.8866 36.2956 23.0121C29.652 24.5176 23.6352 26.9014 20.7521 28.5324C20.2507 28.7833 20 29.4106 20 29.9125C20.1254 43.2113 22.2563 56.7611 25.8915 67.1743C26.0168 67.5507 26.3929 67.8016 26.7689 67.8016H26.8943C28.1478 67.5507 30.1534 67.2998 31.2816 67.1743C31.5323 67.1743 31.783 67.0489 31.9083 66.7979C32.0337 66.547 32.0337 66.2961 32.0337 66.0452C31.5323 64.2887 30.5295 61.0267 30.1534 59.2703C30.1534 59.1448 30.1534 58.8939 30.2788 58.7684C30.4041 58.643 30.5295 58.5175 30.6548 58.5175C31.6576 58.3921 33.0365 58.1411 34.0393 58.0157C34.4153 58.0157 34.666 58.1411 34.7914 58.5175C35.2928 60.3994 36.2956 64.1633 36.797 65.9197C36.9224 66.2961 37.2984 66.6725 37.7998 66.547C38.928 66.4215 40.6829 66.2961 42.0617 66.1706C42.3125 66.1706 42.5632 66.0452 42.6885 65.7942C42.8139 65.5433 42.8139 65.2924 42.6885 65.0415ZM31.6576 50.739C31.0309 50.8644 30.4041 50.9899 29.652 51.1153C28.8999 51.2408 28.1478 50.7389 28.0225 49.9862C27.3957 46.4733 26.5182 39.5729 26.3929 36.311C26.3929 35.6837 26.7689 35.0563 27.3957 34.9309C28.2732 34.68 29.4013 34.429 30.2788 34.1781H30.4041C30.7802 34.1781 31.0309 34.429 31.0309 34.8054C31.2816 38.4438 32.159 45.846 32.7858 49.108C32.9111 49.8607 32.4097 50.6135 31.6576 50.739Z" fill="white"/>
</g>
<defs>
<filter id="filter0_d" x="0" y="0" width="131.882" height="142" filterUnits="userSpaceOnUse" color-interpolation-filters="sRGB">
<feFlood flood-opacity="0" result="BackgroundImageFix"/>
<feColorMatrix in="SourceAlpha" type="matrix" values="0 0 0 0 0 0 0 0 0 0 0 0 0 0 0 0 0 0 127 0"/>
<feOffset/>
<feGaussianBlur stdDeviation="10"/>
<feColorMatrix type="matrix" values="0 0 0 0 0.32549 0 0 0 0 0.847059 0 0 0 0 1 0 0 0 0.7 0"/>
<feBlend mode="lighten" in2="BackgroundImageFix" result="effect1_dropShadow"/>
<feBlend mode="normal" in="SourceGraphic" in2="effect1_dropShadow" result="shape"/>
</filter>
</defs>
</svg>
