<svg width="20" height="20" viewBox="0 0 20 20" fill="none" xmlns="http://www.w3.org/2000/svg">
<path d="M6.7478 5.18506C6.58471 5.18506 6.31707 5.24778 6.08707 5.49449C5.86125 5.73701 5.22144 6.33078 5.22144 7.53923C5.22144 8.74768 6.10798 9.91431 6.23344 10.0774C6.35471 10.2405 7.9438 12.7995 10.4613 13.7864C11.9207 14.355 12.5313 14.4847 12.8783 14.4847C13.1293 14.4847 13.2422 14.4178 13.4303 14.3969C13.882 14.355 14.894 13.8031 15.1031 13.2302C15.308 12.6574 15.308 12.1639 15.2453 12.0636C15.1825 11.9632 15.0194 11.9005 14.7727 11.7751C14.526 11.6538 13.3049 11.06 13.0833 10.9764C12.9829 10.943 12.8993 10.9137 12.8156 10.9137C12.7111 10.9137 12.6149 10.9639 12.5229 11.1018C12.3598 11.3486 11.8831 11.9005 11.7409 12.0636C11.6614 12.1556 11.5778 12.2058 11.4733 12.2058C11.398 12.2058 11.3102 12.1807 11.2056 12.1263C10.9547 12.005 10.1602 11.7458 9.21507 10.9095C8.47907 10.2572 7.98144 9.45435 7.83925 9.20764C7.69289 8.96511 7.82253 8.83131 7.94798 8.71004C8.06089 8.59714 8.19471 8.42152 8.32016 8.27935C8.44562 8.13718 8.48325 8.03264 8.56689 7.86957C8.64635 7.70649 8.60871 7.56014 8.54598 7.43887C8.48325 7.31761 7.9898 6.10917 7.78071 5.61575C7.62598 5.24778 7.47125 5.20178 7.3458 5.20178C7.30398 5.20178 7.26216 5.20597 7.22453 5.20597C7.08234 5.21015 6.91507 5.18506 6.7478 5.18506Z" fill="white"/>
<path d="M10.1644 0C4.74054 0 0.328723 4.38219 0.328723 9.76793C0.328723 11.3903 0.734359 12.9835 1.50381 14.401L0.0527229 18.6745C-0.0685498 19.0341 0.0234502 19.4271 0.286905 19.6989C0.479268 19.8955 0.738541 20 1.002 20C1.10236 20 1.2069 19.9833 1.30727 19.954L5.80272 18.5281C7.14927 19.1888 8.65054 19.54 10.1644 19.54C15.5882 19.54 20 15.1579 20 9.77629C20 4.38219 15.5882 0 10.1644 0ZM10.1602 17.5329C8.83454 17.5329 7.52563 17.1984 6.37563 16.567C6.22927 16.4876 6.062 16.4457 5.89472 16.4457C5.79436 16.4457 5.68981 16.4625 5.58945 16.4917L2.58691 17.4451L3.54454 14.6184C3.64072 14.3383 3.60727 14.0289 3.45254 13.7738C2.72072 12.5695 2.33181 11.1854 2.33181 9.77211C2.33181 5.49028 5.84454 2.00711 10.1644 2.00711C14.4842 2.00711 17.9969 5.49028 17.9969 9.77211C17.9927 14.0498 14.48 17.5329 10.1602 17.5329Z" fill="white"/>
</svg>
