<svg width="25" height="20" viewBox="0 0 25 20" fill="none" xmlns="http://www.w3.org/2000/svg">
<path d="M24.8333 2.37512C23.8891 2.79183 22.9446 3.05206 22.0009 3.15658C23.0668 2.50034 23.788 1.57323 24.1636 0.375331C23.1885 0.968971 22.148 1.37511 21.0416 1.59397C20.0668 0.531472 18.869 0 17.4475 0C16.0872 0 14.9275 0.492118 13.9676 1.47657C13.0085 2.46099 12.5287 3.65101 12.5287 5.04682C12.5287 5.42176 12.5693 5.80732 12.6506 6.20313C10.6403 6.09897 8.75461 5.58076 6.99306 4.64844C5.2316 3.71602 3.73668 2.4738 2.5083 0.921737C2.06158 1.70283 1.83816 2.55194 1.83816 3.4686C1.83816 4.33321 2.03608 5.13541 2.43223 5.87503C2.82811 6.61452 3.36123 7.21341 4.03132 7.67182C3.23931 7.64052 2.49821 7.42692 1.80796 7.03107V7.09355C1.80796 8.31242 2.18106 9.38254 2.92717 10.3047C3.67337 11.2268 4.61506 11.8072 5.75203 12.0469C5.32559 12.1613 4.89402 12.2186 4.45754 12.2186C4.17326 12.2186 3.86358 12.1926 3.52861 12.1409C3.84331 13.1511 4.42203 13.9816 5.26456 14.633C6.10725 15.284 7.06159 15.6196 8.12762 15.641C6.34089 17.0782 4.30537 17.7969 2.02111 17.7969C1.58448 17.7969 1.18864 17.7764 0.833252 17.7347C3.11758 19.2448 5.63533 20 8.38663 20C10.1328 20 11.7724 19.7164 13.3049 19.1486C14.8382 18.5811 16.1477 17.8206 17.2341 16.8672C18.3203 15.9141 19.257 14.8177 20.0437 13.5782C20.8305 12.3385 21.4165 11.0443 21.8026 9.69537C22.1883 8.34613 22.3812 6.99483 22.3812 5.6404C22.3812 5.34869 22.3761 5.13005 22.3659 4.98414C23.3307 4.26572 24.153 3.39576 24.8333 2.37512Z" fill="white"/>
</svg>
