<svg width="29" height="20" viewBox="0 0 29 20" fill="none" xmlns="http://www.w3.org/2000/svg">
<path d="M27.7419 1.71687C26.7312 0.497421 24.8651 0 21.3013 0H8.36489C4.71956 0 2.82188 0.529501 1.81497 1.82777C0.833252 3.0936 0.833252 4.9587 0.833252 7.54003V12.46C0.833252 17.4609 1.99805 20 8.36489 20H21.3013C24.3918 20 26.1043 19.5612 27.2123 18.4848C28.3485 17.3814 28.8333 15.5795 28.8333 12.46V7.54003C28.8333 4.81779 28.7573 2.9417 27.7419 1.71687ZM18.8094 10.6793L12.9349 13.7953C12.8036 13.865 12.66 13.8996 12.5165 13.8996C12.3541 13.8996 12.1921 13.8552 12.0486 13.767C11.7784 13.6008 11.6133 13.3035 11.6133 12.9828V6.7707C11.6133 6.45057 11.7779 6.15356 12.0476 5.98726C12.3174 5.82097 12.6529 5.80962 12.9328 5.9572L18.8074 9.05318C19.1062 9.21067 19.2938 9.52383 19.2943 9.86549C19.2947 10.2074 19.1078 10.5211 18.8094 10.6793Z" fill="white"/>
</svg>
