<svg width="35" height="20" viewBox="0 0 35 20" fill="none" xmlns="http://www.w3.org/2000/svg">
<path d="M34.653 18.0622C34.6119 17.9707 34.5735 17.8947 34.5378 17.8339C33.9478 16.7386 32.8206 15.3942 31.1567 13.8002L31.1215 13.7637L31.1038 13.7458L31.086 13.7274H31.0681C30.313 12.9852 29.8348 12.4861 29.6344 12.2306C29.268 11.7439 29.186 11.2512 29.3863 10.752C29.5277 10.3748 30.0592 9.57833 30.9794 8.36139C31.4634 7.71642 31.8467 7.19954 32.13 6.8101C34.1719 4.01143 35.0571 2.22304 34.7854 1.44425L34.6801 1.26225C34.6092 1.15269 34.4262 1.05245 34.1314 0.961038C33.8362 0.869813 33.4586 0.854735 32.9983 0.915528L27.9001 0.951836C27.8175 0.921663 27.6994 0.92447 27.546 0.961038C27.3925 0.997606 27.3157 1.01594 27.3157 1.01594L27.2268 1.06165L27.1565 1.11657C27.0975 1.15288 27.0326 1.21674 26.9617 1.30802C26.8911 1.39898 26.8323 1.50575 26.785 1.62739C26.23 3.09966 25.5989 4.4685 24.8908 5.73385C24.4541 6.48836 24.053 7.14226 23.6868 7.69592C23.3209 8.24938 23.014 8.65716 22.7665 8.91856C22.5184 9.18021 22.2948 9.38982 22.0935 9.54816C21.893 9.70657 21.7397 9.7735 21.6335 9.749C21.5273 9.72453 21.4272 9.70025 21.3324 9.67595C21.1672 9.56638 21.0345 9.41737 20.9344 9.22879C20.8336 9.04022 20.766 8.80285 20.7307 8.51691C20.6953 8.23077 20.6746 7.98467 20.6687 7.77773C20.6631 7.57108 20.6656 7.27874 20.6777 6.90158C20.6899 6.52423 20.6953 6.2689 20.6953 6.13504C20.6953 5.67262 20.7042 5.17074 20.7217 4.62928C20.7395 4.08782 20.7539 3.65883 20.766 3.34277C20.7781 3.02639 20.7837 2.6917 20.7837 2.33883C20.7837 1.98595 20.7628 1.70921 20.7217 1.50837C20.6811 1.30776 20.6187 1.11306 20.5365 0.924284C20.4535 0.735698 20.3324 0.589816 20.1735 0.486264C20.0141 0.382825 19.8161 0.300744 19.5804 0.239761C18.9549 0.0938185 18.1583 0.0148704 17.1904 0.00259672C14.9954 -0.0216941 13.585 0.124439 12.9595 0.44081C12.7117 0.574478 12.4874 0.757115 12.2869 0.988143C12.0744 1.25593 12.0448 1.40205 12.1982 1.42609C12.9064 1.53548 13.4077 1.79713 13.7028 2.21077L13.8092 2.43C13.8919 2.58813 13.9745 2.86813 14.0571 3.26958C14.1396 3.67103 14.1929 4.11513 14.2163 4.6016C14.2752 5.48996 14.2752 6.25044 14.2163 6.88303C14.1572 7.5159 14.1014 8.00858 14.0482 8.36145C13.9949 8.71432 13.9153 9.00025 13.8092 9.2192C13.7028 9.43822 13.6321 9.57207 13.5966 9.62065C13.5612 9.66924 13.5317 9.69986 13.5083 9.71187C13.3548 9.77248 13.1953 9.80336 13.0302 9.80336C12.8649 9.80336 12.6643 9.71806 12.4283 9.54766C12.1924 9.37722 11.9476 9.14314 11.6938 8.84498C11.44 8.54678 11.1538 8.13003 10.8351 7.59473C10.5165 7.0594 10.1861 6.42674 9.84381 5.69671L9.56064 5.16728C9.38362 4.82668 9.14181 4.33074 8.83495 3.67992C8.52792 3.02883 8.25652 2.39904 8.02059 1.79066C7.92629 1.53514 7.78461 1.34063 7.59582 1.20677L7.50723 1.15185C7.44832 1.10328 7.35376 1.05169 7.22406 0.996695C7.09416 0.941796 6.95861 0.902421 6.81686 0.878178L1.96642 0.914486C1.47076 0.914486 1.13447 1.03027 0.957383 1.26148L0.886514 1.37086C0.851111 1.43178 0.833252 1.52908 0.833252 1.66299C0.833252 1.79686 0.868657 1.96115 0.939526 2.15567C1.6476 3.87144 2.41763 5.52616 3.24958 7.12006C4.08153 8.71401 4.8045 9.99795 5.41801 10.9708C6.03165 11.9443 6.65716 12.8631 7.29449 13.7267C7.93181 14.5907 8.35368 15.1443 8.56011 15.3876C8.76675 15.6313 8.92907 15.8134 9.04705 15.9351L9.4897 16.373C9.77294 16.6651 10.1888 17.0149 10.7376 17.4225C11.2865 17.8302 11.8943 18.2316 12.561 18.6274C13.2279 19.0226 14.0038 19.345 14.889 19.5945C15.7741 19.844 16.6356 19.9442 17.4736 19.8958H19.5094C19.9221 19.859 20.235 19.7253 20.4476 19.4943L20.5181 19.4028C20.5655 19.3301 20.6099 19.2174 20.6506 19.0654C20.6921 18.9135 20.7126 18.746 20.7126 18.5636C20.7006 18.0405 20.7392 17.569 20.8275 17.1494C20.9159 16.7297 21.0163 16.4133 21.1288 16.2003C21.2412 15.9874 21.3681 15.8078 21.5093 15.6621C21.6507 15.5162 21.7515 15.4278 21.8108 15.3974C21.8696 15.3667 21.9165 15.346 21.9518 15.3335C22.2351 15.2362 22.5685 15.3304 22.9522 15.6166C23.3359 15.9026 23.6958 16.2556 24.0323 16.6752C24.3688 17.0953 24.7729 17.5666 25.2448 18.0895C25.7172 18.6129 26.1301 19.0018 26.4839 19.2576L26.8377 19.4768C27.0743 19.6227 27.3812 19.7568 27.7588 19.8783C28.136 19.9999 28.4661 20.0304 28.7498 19.9696L33.2813 19.8968C33.7298 19.8968 34.0784 19.8202 34.3257 19.6683C34.5737 19.5162 34.721 19.3487 34.7684 19.1665C34.8159 18.9841 34.8184 18.777 34.7775 18.5456C34.7354 18.3147 34.6941 18.1533 34.653 18.0622Z" fill="white"/>
</svg>
