<svg width="18" height="20" viewBox="0 0 18 20" fill="none" xmlns="http://www.w3.org/2000/svg">
<path d="M17.6645 5.17413C17.2226 2.99116 15.9561 1.51057 13.9044 0.772266C12.3933 0.229515 10.8308 0.0858459 9.64324 0.0219929C8.64502 -0.0298877 7.67836 0.0100204 6.77483 0.141717C5.386 0.345249 4.36016 0.648551 3.44874 1.12745C1.8074 1.98547 0.797337 3.26652 0.442238 4.93867C0.0437384 6.81835 -0.0825189 8.52641 0.0516296 10.1666C0.150268 11.3439 0.355436 12.2977 0.702644 13.1597C1.31815 14.6922 2.33215 15.6979 3.72098 16.1529C3.80779 16.1808 3.89064 16.2127 3.97744 16.2446C4.0169 16.2606 4.0603 16.2766 4.09976 16.2925C4.09581 16.6357 4.09581 16.979 4.09581 17.3222V17.7412C4.09976 17.8649 4.09976 18.0285 4.1037 18.2001C4.11554 19.4533 4.13527 19.5969 4.30492 19.7526C4.45091 19.8843 4.64424 20 4.88097 20C5.11771 20 5.39784 19.8883 5.71743 19.569L6.23429 19.0582C6.90898 18.3957 7.60734 17.7093 8.25836 16.9949C8.27808 16.975 8.28992 16.967 8.28598 16.971C9.35127 16.967 10.4008 16.9071 11.2885 16.8512C12.2394 16.7914 13.0167 16.6637 13.7269 16.4562C15.4669 15.9493 16.6584 14.8598 17.2739 13.2276C17.6921 12.1181 17.921 10.9089 17.9802 9.52811C18.0472 7.98366 17.9447 6.55894 17.6645 5.17413ZM4.79417 14.772L4.69948 14.7321C4.53771 14.6643 4.37594 14.5964 4.21023 14.5446C3.31854 14.2612 2.68331 13.6347 2.26902 12.633C1.98889 11.9625 1.81529 11.1883 1.7127 10.1986C1.53515 8.45458 1.78372 6.74252 2.02045 5.44551C2.26113 4.13253 3.0029 3.1907 4.29309 2.56414C5.19662 2.12515 6.25008 1.86176 7.60734 1.73405C8.04135 1.69414 8.47931 1.67419 8.92121 1.67419C10.1128 1.67419 11.3359 1.81786 12.5708 2.1052C13.498 2.3207 14.2359 2.67588 14.8316 3.1907C15.4116 3.69354 15.7825 4.37996 16.0035 5.35771C16.2047 6.24766 16.3152 7.14958 16.3388 8.03954C16.3743 9.37247 16.2915 10.45 16.0863 11.4397C15.9916 11.8987 15.8338 12.3696 15.5971 12.9323C15.2577 13.7304 14.6699 14.2931 13.8097 14.6483C13.0088 14.9796 12.1644 15.0873 11.5174 15.1472C10.7756 15.215 10.0181 15.239 9.2842 15.2629C8.8857 15.2749 8.4872 15.2908 8.08475 15.3108C7.68625 15.3307 7.34299 15.5063 7.03918 15.8496C6.6249 16.3125 6.18695 16.7475 5.72532 17.2064C5.72532 16.8632 5.72532 16.532 5.73321 16.2007C5.75294 15.5303 5.42546 15.0314 4.79417 14.772Z" fill="white"/>
<path d="M11.2057 13.2793C11.0281 13.2873 10.8624 13.2354 10.7006 13.1675C8.2978 12.1339 6.41183 10.5176 5.14926 8.183C4.88096 7.68415 4.67185 7.15337 4.4943 6.6186C4.33648 6.13971 4.47457 5.70471 4.806 5.33755C5.05062 5.06618 5.37021 4.90654 5.72136 4.83471C5.93048 4.79081 6.12775 4.83072 6.28952 4.97838C6.85373 5.48122 7.2838 6.08782 7.58366 6.78223C7.69413 7.03764 7.60339 7.26511 7.40611 7.44869C7.30353 7.54447 7.18911 7.62429 7.08652 7.71608C6.81822 7.95153 6.7472 8.23887 6.87741 8.57011C7.31536 9.67956 8.11631 10.4139 9.20528 10.8369C9.40255 10.9127 9.59589 10.8688 9.75371 10.7251C9.81289 10.6693 9.87602 10.6134 9.91547 10.5456C10.2587 9.99483 10.7874 9.97488 11.2688 10.2901C11.6949 10.5695 12.1013 10.8808 12.4998 11.204C12.8194 11.4634 12.8825 11.7668 12.7168 12.1459C12.4722 12.7006 12.0461 13.0598 11.4779 13.2473C11.4463 13.2593 11.4108 13.2673 11.3753 13.2713C11.3201 13.2753 11.2648 13.2753 11.2057 13.2793Z" fill="white"/>
<path d="M9.32365 4.11238C11.2885 4.11238 12.8786 5.5371 13.1193 7.46466C13.1706 7.88369 13.1508 8.29475 13.0719 8.70181C13.0206 8.96121 12.8391 9.0969 12.6182 9.053C12.413 9.01309 12.3065 8.81355 12.3538 8.55814C12.6734 6.7942 11.62 5.2298 9.88786 4.89058C9.5012 4.81476 9.11848 4.8427 8.73182 4.91054C8.47931 4.95444 8.29781 4.8427 8.25836 4.6232C8.2189 4.41169 8.34516 4.24008 8.58584 4.18421C8.84624 4.13233 9.11059 4.1004 9.32365 4.11238Z" fill="white"/>
<path d="M12.1052 7.93989C12.1092 8.10351 12.1052 8.26714 12.0697 8.42677C12.0263 8.61833 11.8527 8.74603 11.6752 8.72608C11.4818 8.70213 11.3595 8.55847 11.3516 8.35493C11.3477 8.13943 11.3911 7.92792 11.3635 7.70842C11.2372 6.69076 10.4165 5.92852 9.39857 5.90058C9.26837 5.89659 9.13422 5.92453 9.00007 5.92852C8.7594 5.9365 8.60947 5.80879 8.58579 5.59728C8.56606 5.40572 8.70416 5.2421 8.92116 5.20219C10.3494 4.92683 11.8409 5.99237 12.0658 7.44902C12.0973 7.61264 12.1131 7.77627 12.1052 7.93989Z" fill="white"/>
<path d="M9.4026 6.22422C10.2982 6.23619 11.0913 7.07027 11.0676 7.98018C11.0597 8.20366 10.9256 8.35531 10.7204 8.3633C10.5152 8.37128 10.3732 8.2316 10.3495 8.00811C10.2746 7.36559 9.96681 7.03835 9.3592 6.95853C9.07512 6.92261 8.94097 6.78693 8.95675 6.55945C8.96859 6.33596 9.12641 6.22023 9.4026 6.22422Z" fill="white"/>
</svg>
