<svg width="274" height="235" viewBox="0 0 274 235" fill="none" xmlns="http://www.w3.org/2000/svg">
<path d="M59.8352 48.3162C65.4282 48.3162 69.9622 43.7966 69.9622 38.2214C69.9622 32.6463 65.4282 28.1267 59.8352 28.1267C54.2423 28.1267 49.7083 32.6463 49.7083 38.2214C49.7083 43.7966 54.2423 48.3162 59.8352 48.3162Z" fill="#D9E021"/>
<path d="M115.602 21.0265C120.208 21.0265 123.941 17.3049 123.941 12.7141C123.941 8.12322 120.208 4.40161 115.602 4.40161C110.997 4.40161 107.263 8.12322 107.263 12.7141C107.263 17.3049 110.997 21.0265 115.602 21.0265Z" fill="#F76540"/>
<path d="M219.254 59.9189C222.708 59.9189 225.508 57.1277 225.508 53.6845C225.508 50.2414 222.708 47.4502 219.254 47.4502C215.8 47.4502 213 50.2414 213 53.6845C213 57.1277 215.8 59.9189 219.254 59.9189Z" fill="#FFEB52"/>
<path d="M226.347 31.3952C231.613 31.3952 235.881 27.1406 235.881 21.8922C235.881 16.6438 231.613 12.3892 226.347 12.3892C221.082 12.3892 216.814 16.6438 216.814 21.8922C216.814 27.1406 221.082 31.3952 226.347 31.3952Z" fill="#29ABE2"/>
<path d="M91.4106 31.0993C93.3856 31.0993 94.9866 29.5034 94.9866 27.5348C94.9866 25.5661 93.3856 23.9702 91.4106 23.9702C89.4357 23.9702 87.8347 25.5661 87.8347 27.5348C87.8347 29.5034 89.4357 31.0993 91.4106 31.0993Z" fill="#29ABE2"/>
<path d="M123.073 216.737H87.3352V230.757H123.073V216.737Z" fill="#F4F4F4"/>
<path d="M123.073 216.737H87.3352V230.757H123.073V216.737Z" fill="#CDCCD2"/>
<path d="M132.317 232.799C132.315 233.384 132.081 233.943 131.665 234.356C131.25 234.768 130.688 235 130.102 235H80.2993C79.7131 235 79.1507 234.768 78.7356 234.356C78.3204 233.943 78.0861 233.384 78.0842 232.799C78.0842 232.214 78.3176 231.652 78.733 231.238C79.1484 230.824 79.7118 230.591 80.2993 230.591H130.102C130.689 230.591 131.253 230.824 131.668 231.238C132.083 231.652 132.317 232.214 132.317 232.799Z" fill="#E6E6E6"/>
<path d="M174.62 114.845H35.7883C31.7904 114.845 28.5496 118.075 28.5496 122.06V217.762C28.5496 221.747 31.7904 224.978 35.7883 224.978H174.62C178.618 224.978 181.858 221.747 181.858 217.762V122.06C181.858 118.075 178.618 114.845 174.62 114.845Z" fill="#444166"/>
<path d="M176.74 121.317H32.7478V204.427H176.74V121.317Z" fill="url(#paint0_linear)"/>
<path d="M28.5496 209.767V218.483C28.5496 220.397 29.3122 222.232 30.6697 223.586C32.0273 224.939 33.8685 225.699 35.7883 225.699H174.612C176.532 225.699 178.374 224.939 179.731 223.586C181.089 222.232 181.851 220.397 181.851 218.483V209.767H28.5496Z" fill="#E6E6E6"/>
<g style="mix-blend-mode:screen" opacity="0.3">
<g style="mix-blend-mode:screen" opacity="0.3">
<path d="M181.366 231.594L138.469 231.623L39.002 69.5807L81.8986 69.5591L181.366 231.594Z" fill="white"/>
</g>
</g>
<g style="mix-blend-mode:screen" opacity="0.35">
<g style="mix-blend-mode:screen" opacity="0.35">
<path d="M116.319 212.436L25.0387 65.6479L0 65.6768L91.2658 212.436H116.319Z" fill="white"/>
</g>
</g>
<path d="M108.639 221.276C108.072 221.841 107.349 222.226 106.563 222.382C105.777 222.538 104.962 222.457 104.221 222.152C103.48 221.846 102.847 221.328 102.402 220.663C101.956 219.999 101.719 219.218 101.719 218.418C101.719 217.619 101.956 216.838 102.402 216.174C102.847 215.509 103.48 214.991 104.221 214.685C104.962 214.379 105.777 214.299 106.563 214.455C107.349 214.611 108.072 214.996 108.639 215.561C109.016 215.936 109.315 216.381 109.52 216.871C109.724 217.362 109.829 217.888 109.829 218.418C109.829 218.949 109.724 219.475 109.52 219.965C109.315 220.456 109.016 220.901 108.639 221.276Z" fill="#CDCCD2"/>
<path d="M97.9398 138.043C94.3783 137.588 88.3485 139.544 89.5067 144.898C90.0062 147.185 91.5697 149.227 91.6132 151.681C91.6855 155.418 88.4209 157.027 85.7787 157.994C82.4127 159.228 79.7923 161.458 80.9288 165.672C81.9929 169.619 85.6412 172.072 80.7768 174.619C77.57 176.301 74.0231 177.008 72.6332 181.2C71.7469 183.726 71.845 186.492 72.9083 188.95C74.87 193.178 79.2856 195.335 83.0425 197.067C90.9583 200.614 99.7242 201.838 108.313 200.596C116.869 199.456 129.016 196.324 133.467 187.009C135.769 182.189 134.155 177.794 131.151 174.129C129.095 171.61 128.415 168.933 130.188 166.047C131.542 163.882 133.887 161.876 133.171 158.831C132.259 154.964 128.198 155.18 125.765 153.174C122.313 150.288 125.251 145.959 124.057 142.25C123.764 141.362 123.255 140.561 122.575 139.918C121.896 139.274 121.067 138.809 120.163 138.563C118.865 138.265 117.506 138.378 116.275 138.887C115.088 139.342 113.764 140.532 112.453 139.919C111.592 139.515 111.056 138.216 110.282 137.661C107.119 135.496 103.767 136.109 100.676 138C99.5178 138.743 99.2283 138.216 97.9398 138.043Z" fill="url(#paint1_linear)"/>
<path d="M80.8781 204.86C81.0426 204.824 81.213 204.824 81.3776 204.86H133.25V199.643C133.257 196.171 132.552 192.733 131.18 189.541C128.926 184.101 124.619 179.76 119.185 177.455C117.463 176.748 115.646 176.299 113.793 176.12C113.17 176.062 112.548 176.026 111.903 176.026H101.791C100.509 176.026 99.2314 176.154 97.976 176.409C96.8232 176.643 95.6942 176.981 94.6027 177.419L94.4797 177.47C87.5667 180.284 82.2969 186.965 80.8491 195.112C80.6191 196.408 80.4884 197.721 80.4583 199.037V199.109C80.4583 199.29 80.4583 199.463 80.4583 199.636V204.853L80.8781 204.86Z" fill="#C16891"/>
<path d="M117.021 155.909C116.876 155.476 116.493 155.13 116 155.382C115.761 155.525 115.56 155.723 115.414 155.96C115.15 154.474 115.092 152.959 115.24 151.457C115.327 150.014 115.313 148.527 114.386 147.337C112.041 144.35 110.166 147.907 107.271 147.943C104.375 147.979 102.493 144.335 100.155 147.337C98.2655 149.754 100.155 153.304 99.0908 156.046C99.279 155.555 98.1859 155.101 97.8023 155.325C97.0784 155.736 97.3824 157.828 97.5127 158.485C97.5797 158.969 97.769 159.429 98.0629 159.82C98.128 159.899 99.1125 160.542 99.1052 160.404C99.1559 162.057 99.4744 164.279 100.481 165.643C101.487 167.007 102.652 167.425 103.318 168.876C104.809 172.173 101.965 176.308 98.1353 177.469C99.6337 178.364 105.374 179.901 107.22 179.872C108.972 180.024 115.059 179.374 114.372 177.217C110.542 176.048 109.724 172.166 111.223 168.876C111.882 167.432 113.112 166.92 114.06 165.643C115.009 164.366 115.385 162.035 115.436 160.404C115.436 160.549 116.428 159.885 116.5 159.798C116.77 159.421 116.949 158.986 117.021 158.528C117.237 157.669 117.237 156.769 117.021 155.909Z" fill="url(#paint2_linear)"/>
<path d="M78.2724 200.725V204.86H135.581C135.581 201.938 135.581 199.809 135.581 199.809C135.579 196.577 134.896 193.381 133.576 190.429C132.299 187.582 130.466 185.018 128.182 182.887C125.899 180.756 123.212 179.101 120.279 178.018L120.221 178.227C119.61 181.27 117.967 184.01 115.566 185.985C113.166 187.961 110.156 189.052 107.043 189.074C103.93 189.096 100.905 188.048 98.477 186.106C96.0489 184.165 94.3662 181.448 93.7125 178.415C93.6691 178.263 93.6402 178.111 93.6112 177.96C93.5679 177.983 93.5216 178 93.4737 178.01C89.9523 179.325 86.7959 181.457 84.266 184.23C81.1751 187.628 79.1604 191.861 78.475 196.396C78.3954 196.988 78.3303 197.579 78.2868 198.178C78.2434 198.777 78.2217 199.253 78.2217 199.795V200.704L78.2724 200.725Z" fill="#FF9CC4"/>
<path d="M103.224 161.328C103.34 162.27 103.798 163.138 104.511 163.767C105.225 164.397 106.144 164.744 107.097 164.744C108.05 164.744 108.969 164.397 109.683 163.767C110.396 163.138 110.854 162.27 110.97 161.328H103.224Z" fill="white"/>
<path d="M72.8358 150.677H20.9053C18.9863 150.677 17.4307 152.228 17.4307 154.141V160.873C17.4307 162.786 18.9863 164.337 20.9053 164.337H72.8358C74.7548 164.337 76.3104 162.786 76.3104 160.873V154.141C76.3104 152.228 74.7548 150.677 72.8358 150.677Z" fill="#FFEB52"/>
<path opacity="0.3" d="M43.4901 150.677H20.6664C19.81 150.679 18.9892 151.019 18.383 151.622C17.7768 152.225 17.4345 153.042 17.4307 153.896V161.111C17.4326 161.966 17.7741 162.785 18.3805 163.39C18.9869 163.994 19.8088 164.335 20.6664 164.337H52.5964C49.6719 159.719 46.6317 155.173 43.4901 150.677Z" fill="#ED7E3D"/>
<path d="M60.6387 161.357C62.3181 169.236 67.7688 172.426 72.9445 172.058C68.4275 172.151 64.9819 162.973 68.7967 161.357H60.6387Z" fill="#FFEB52"/>
<path d="M103.217 145.136C102.037 150.071 105.569 152.561 110.303 151.111C110.021 156.039 118.599 154.762 121.828 154.567C120.358 148.325 112.533 139.926 103.217 145.136Z" fill="url(#paint3_linear)"/>
<path d="M147.641 180.911H199.572C201.491 180.911 203.046 179.36 203.046 177.448V170.715C203.046 168.803 201.491 167.252 199.572 167.252H147.641C145.722 167.252 144.166 168.803 144.166 170.715V177.448C144.166 179.36 145.722 180.911 147.641 180.911Z" fill="#FFEB52"/>
<path opacity="0.3" d="M199.571 167.252H173.353C169.449 171.764 165.605 176.317 161.822 180.911H199.571C200.493 180.91 201.376 180.544 202.029 179.895C202.681 179.246 203.049 178.367 203.053 177.448V170.723C203.051 169.803 202.684 168.921 202.031 168.271C201.379 167.62 200.494 167.254 199.571 167.252Z" fill="#ED7E3D"/>
<path d="M160.034 177.982C158.354 185.861 152.903 189.058 147.728 188.69C152.245 188.784 155.69 179.598 151.876 177.982H160.034Z" fill="#FFEB52"/>
<path d="M234.44 75.9595H156.704C152.754 75.9595 149.552 79.1513 149.552 83.0886V139.198C149.552 143.135 152.754 146.327 156.704 146.327H234.44C238.39 146.327 241.592 143.135 241.592 139.198V83.0886C241.592 79.1513 238.39 75.9595 234.44 75.9595Z" fill="#8EDDD9"/>
<path d="M142.407 62.5959V122.277C142.407 122.871 142.332 123.462 142.183 124.037C142.14 124.21 142.089 124.376 142.031 124.542C141.593 125.832 140.795 126.971 139.731 127.825C138.667 128.678 137.381 129.212 136.023 129.362C135.768 129.391 135.512 129.406 135.256 129.406H89.6517C89.4876 129.406 89.3211 129.406 89.1522 129.406C87.6699 129.296 86.2582 128.73 85.1121 127.787C83.9659 126.843 83.1417 125.569 82.7532 124.138L82.6953 123.922C82.5699 123.39 82.5068 122.845 82.5071 122.298V62.5959C82.5109 60.7075 83.2646 58.8975 84.6035 57.5616C85.9423 56.2257 87.7573 55.4725 89.6517 55.4668H135.256C137.151 55.4706 138.968 56.2229 140.309 57.5591C141.649 58.8952 142.404 60.7063 142.407 62.5959Z" fill="#F76540"/>
<path d="M196.003 2.51807H166.44C162.49 2.51807 159.288 5.70987 159.288 9.64715V61.4629C159.288 65.4002 162.49 68.592 166.44 68.592H196.003C199.952 68.592 203.154 65.4002 203.154 61.4629V9.64715C203.154 5.70987 199.952 2.51807 196.003 2.51807Z" fill="#FFEB52"/>
<path d="M183.046 81.7897C178.811 80.9526 176.582 86.0397 175.698 89.3445C174.005 95.6437 177.146 101.157 182.401 104.743C190.147 110.046 196.307 107.809 204.226 104.93C211.364 102.34 218.704 106.114 226.008 106.373C232.616 106.604 241.592 102.571 239.544 94.5037C237.372 85.8449 227.238 84.3151 219.681 86.0974C217.075 86.7107 214.824 87.6993 212.442 86.0974C206.984 82.4896 205.203 69.2632 196.177 74.1555C194.078 75.2955 192.731 77.3953 191.225 79.2064C188.837 82.1432 186.499 83.4493 183.046 81.7897Z" fill="url(#paint4_linear)"/>
<path d="M206.579 97.7147C206.434 97.2817 206.05 96.9354 205.558 97.1807C205.324 97.3275 205.126 97.5247 204.979 97.758C204.711 96.2725 204.653 94.757 204.805 93.2554C204.885 91.8122 204.87 90.3258 203.944 89.1424C201.606 86.1479 199.724 89.7125 196.828 89.7413C193.933 89.7702 192.058 86.1335 189.72 89.1424C187.823 91.5597 189.72 95.1026 188.656 97.8446C188.837 97.3611 187.744 96.9065 187.367 97.123C186.643 97.5271 186.947 99.6268 187.078 100.276C187.143 100.76 187.329 101.219 187.621 101.611C187.693 101.698 188.67 102.333 188.67 102.196C188.721 103.848 189.039 106.078 190.046 107.434C191.052 108.791 192.217 109.216 192.876 110.674C194.374 113.972 191.522 118.099 187.7 119.268C189.191 120.163 194.939 121.7 196.785 121.663C198.529 121.815 204.624 121.173 203.937 119.008C200.107 117.846 199.289 113.957 200.788 110.674C201.447 109.231 202.677 108.719 203.618 107.434C204.559 106.15 204.943 103.826 204.993 102.196C204.993 102.34 205.985 101.676 206.058 101.597C206.33 101.22 206.508 100.785 206.579 100.327C206.801 99.4701 206.801 98.5713 206.579 97.7147Z" fill="url(#paint5_linear)"/>
<path d="M170.45 146.666C170.617 146.63 170.79 146.63 170.957 146.666H223.524V141.615C223.53 138.256 222.814 134.934 221.425 131.874C219.052 126.561 214.683 122.387 209.257 120.249C207.506 119.563 205.665 119.128 203.792 118.958C203.162 118.9 202.525 118.864 201.873 118.864H191.652C190.355 118.865 189.061 118.988 187.787 119.232C186.623 119.461 185.48 119.786 184.37 120.206L184.247 120.256C180.687 121.694 177.551 124.009 175.134 126.985C172.717 129.961 171.098 133.5 170.428 137.271C170.193 138.519 170.058 139.783 170.023 141.052V146.666H170.45Z" fill="white"/>
<path d="M169.155 142.632V146.666H225.182C225.182 143.816 225.182 141.752 225.182 141.752C225.183 138.594 224.515 135.471 223.221 132.588C221.966 129.811 220.168 127.311 217.932 125.236C215.696 123.161 213.067 121.551 210.198 120.502C210.198 120.502 210.198 120.646 210.155 120.718C209.553 123.686 207.945 126.357 205.6 128.283C203.256 130.208 200.319 131.272 197.281 131.294C194.244 131.316 191.291 130.295 188.919 128.404C186.547 126.512 184.9 123.865 184.255 120.906C184.255 120.754 184.182 120.61 184.161 120.458C184.117 120.482 184.071 120.499 184.023 120.509C180.587 121.787 177.505 123.862 175.033 126.563C172.019 129.872 170.059 133.998 169.401 138.418C169.321 138.988 169.256 139.566 169.213 140.15C169.169 140.735 169.155 141.196 169.155 141.723V142.603V142.632Z" fill="white"/>
<path d="M193.578 103.134C193.694 104.076 194.151 104.944 194.865 105.573C195.578 106.203 196.498 106.55 197.451 106.55C198.403 106.55 199.323 106.203 200.036 105.573C200.75 104.944 201.207 104.076 201.323 103.134H193.578Z" fill="white"/>
<path d="M192.227 108.201C192.933 105.222 191.082 102.237 188.094 101.534C185.105 100.831 182.111 102.676 181.406 105.655C180.701 108.633 182.551 111.618 185.54 112.321C188.528 113.024 191.522 111.179 192.227 108.201Z" fill="#FFEB52"/>
<path d="M213.374 107.896C214.079 104.917 212.228 101.932 209.24 101.229C206.252 100.526 203.258 102.371 202.552 105.35C201.847 108.328 203.698 111.313 206.686 112.016C209.674 112.719 212.668 110.874 213.374 107.896Z" fill="#FFEB52"/>
<path d="M202.51 129.695H189.995C189.205 129.693 188.448 129.379 187.89 128.821C187.333 128.264 187.02 127.509 187.02 126.722C187.021 125.936 187.336 125.183 187.893 124.627C188.451 124.071 189.206 123.758 189.995 123.756H202.51C203.299 123.758 204.054 124.071 204.612 124.627C205.17 125.183 205.484 125.936 205.486 126.722C205.486 127.509 205.172 128.264 204.615 128.821C204.057 129.379 203.3 129.693 202.51 129.695Z" fill="#FEDB5C"/>
<path d="M128.393 67.2288C127.459 64.5734 127.821 62.7767 126.012 60.4172C121.379 54.5003 117.665 61.5428 111.939 61.6078C106.221 61.5428 101.588 53.8942 97.8674 60.4172C89.1013 75.8154 96.5283 93.8907 98.5189 96.5893C100.386 99.1148 102.819 100.111 104.122 102.99C107.082 109.484 101.443 117.681 93.8789 119.983C96.8323 121.758 108.161 124.788 111.838 124.723C115.298 125.026 127.344 123.749 125.983 119.477C118.418 117.168 116.797 109.505 119.757 102.99C121.068 100.103 123.123 99.5911 124.998 97.0584C126.96 94.3669 130.261 72.5395 128.393 67.2288Z" fill="url(#paint6_linear)"/>
<path d="M142.031 124.543C142.089 124.377 142.14 124.211 142.183 124.037C142.331 123.462 142.407 122.871 142.407 122.277V119.636C141.98 119.419 141.553 119.188 141.119 118.994C137.055 117.078 132.701 115.845 128.234 115.343C126.734 115.172 125.226 115.085 123.717 115.083H99.5903C96.5229 115.086 93.4656 115.434 90.4768 116.122C87.7534 116.759 85.1006 117.666 82.5576 118.828V122.277C82.5573 122.823 82.6205 123.368 82.7458 123.9L82.8037 124.117C83.1922 125.547 84.0164 126.822 85.1626 127.765C86.3088 128.709 87.7204 129.274 89.2028 129.384C89.3668 129.384 89.5333 129.384 89.7022 129.384H135.306C135.563 129.384 135.819 129.37 136.073 129.341C137.42 129.183 138.693 128.649 139.748 127.8C140.802 126.95 141.593 125.821 142.031 124.543Z" fill="white"/>
<path d="M70.049 103.956C68.7344 103.952 67.4747 103.431 66.5444 102.505C65.6142 101.579 65.089 100.324 65.0833 99.0133V78.8094C65.089 77.499 65.6142 76.2441 66.5444 75.3182C67.4747 74.3922 68.7344 73.8705 70.049 73.8667C71.3642 73.8686 72.625 74.3897 73.5557 75.3161C74.4863 76.2424 75.011 77.4985 75.0148 78.8094V99.0133C75.011 100.324 74.4863 101.58 73.5557 102.507C72.625 103.433 71.3642 103.954 70.049 103.956Z" fill="#29ABE2"/>
<path d="M254.137 69.9125H234.679C233.531 69.9012 232.433 69.4414 231.621 68.6319C230.808 67.8225 230.347 66.7278 230.336 65.5831C230.345 64.4378 230.806 63.342 231.618 62.5321C232.431 61.7222 233.53 61.2631 234.679 61.2537H254.137C255.286 61.2631 256.385 61.7222 257.198 62.5321C258.01 63.342 258.471 64.4378 258.48 65.5831C258.469 66.7278 258.008 67.8225 257.195 68.6319C256.383 69.4414 255.285 69.9012 254.137 69.9125Z" fill="#F76540"/>
<path d="M182.474 15.2539C186.7 15.2539 190.125 11.8392 190.125 7.62696C190.125 3.41471 186.7 0 182.474 0C178.248 0 174.823 3.41471 174.823 7.62696C174.823 11.8392 178.248 15.2539 182.474 15.2539Z" fill="url(#paint7_linear)"/>
<path d="M182.473 25.4281C188.194 25.4281 192.832 20.8052 192.832 15.1025C192.832 9.3998 188.194 4.77686 182.473 4.77686C176.752 4.77686 172.115 9.3998 172.115 15.1025C172.115 20.8052 176.752 25.4281 182.473 25.4281Z" fill="url(#paint8_linear)"/>
<path d="M195.356 30.1705C196.532 22.9445 191.61 16.1357 184.361 14.9628C177.111 13.7898 170.281 18.6968 169.104 25.9229C167.928 33.149 172.85 39.9577 180.099 41.1307C187.349 42.3036 194.179 37.3966 195.356 30.1705Z" fill="url(#paint9_linear)"/>
<path d="M193.788 37.3268C193.621 36.8217 193.172 36.4177 192.608 36.7063C192.33 36.8724 192.097 37.1025 191.927 37.3774C191.62 35.6534 191.554 33.8952 191.732 32.1532C191.826 30.508 191.811 28.7546 190.733 27.3764C188.018 23.9129 185.839 28.0403 182.481 28.098C179.122 28.1557 176.943 23.9346 174.229 27.3764C172.057 30.1833 174.229 34.2963 172.998 37.4784C173.208 36.9156 171.941 36.3816 171.5 36.6269C170.653 37.0959 171.015 39.5132 171.159 40.2853C171.24 40.847 171.458 41.38 171.796 41.8366C171.876 41.9377 173.02 42.6737 173.012 42.5149C173.07 44.4343 173.44 47.0103 174.605 48.5905C175.77 50.1707 177.131 50.6614 177.891 52.3499C179.629 56.1742 176.328 60.9654 171.89 62.3147C173.621 63.3538 180.266 65.136 182.423 65.0927C184.45 65.2731 191.515 64.5227 190.718 62.0189C186.281 60.6623 185.333 56.1742 187.099 52.3499C187.866 50.6614 189.271 50.0769 190.393 48.5905C191.515 47.1041 191.927 44.4343 191.985 42.5149C191.985 42.6809 193.136 41.916 193.216 41.7933C193.531 41.3676 193.74 40.8728 193.824 40.3502C194.067 39.3554 194.054 38.3156 193.788 37.3268Z" fill="url(#paint10_linear)"/>
<path d="M200.245 64.003C199.818 63.8082 199.383 63.635 198.949 63.4618C196.45 62.4951 193.829 61.8783 191.16 61.6291C190.255 61.5497 189.358 61.5064 188.431 61.5064H173.874C172.028 61.5034 170.185 61.6774 168.373 62.0259C166.714 62.3458 165.086 62.8093 163.508 63.4113L163.327 63.4835C162.339 63.8722 161.373 64.313 160.432 64.8039V65.4461C160.769 66.381 161.371 67.1983 162.165 67.7989C162.959 68.3996 163.911 68.7578 164.905 68.8303H165.267H198.073C198.254 68.841 198.435 68.841 198.616 68.8303C199.596 68.7275 200.527 68.3466 201.296 67.7327C202.066 67.1188 202.643 66.2977 202.959 65.3668C202.078 64.8665 201.172 64.4114 200.245 64.003Z" fill="#F76540"/>
<path d="M174.902 41.5044C178.22 41.5044 180.91 38.7585 180.91 35.3711C180.91 31.9838 178.22 29.2378 174.902 29.2378C171.584 29.2378 168.894 31.9838 168.894 35.3711C168.894 38.7585 171.584 41.5044 174.902 41.5044Z" stroke="white" stroke-width="0.99" stroke-miterlimit="10"/>
<path d="M188.901 41.5044C192.22 41.5044 194.91 38.7585 194.91 35.3711C194.91 31.9838 192.22 29.2378 188.901 29.2378C185.583 29.2378 182.893 31.9838 182.893 35.3711C182.893 38.7585 185.583 41.5044 188.901 41.5044Z" stroke="white" stroke-width="0.99" stroke-miterlimit="10"/>
<path d="M176.907 42.991C177.05 44.2641 177.659 45.44 178.617 46.2939C179.575 47.1479 180.816 47.6199 182.101 47.6199C183.386 47.6199 184.626 47.1479 185.584 46.2939C186.542 45.44 187.151 44.2641 187.295 42.991H176.907Z" fill="url(#paint11_linear)"/>
<path d="M231.103 190.862C229.525 190.856 228.013 190.229 226.897 189.116C225.781 188.004 225.152 186.497 225.146 184.923V158.795C225.15 157.222 225.779 155.713 226.895 154.6C228.012 153.488 229.525 152.861 231.103 152.857C232.682 152.861 234.195 153.488 235.312 154.6C236.428 155.713 237.057 157.222 237.061 158.795V184.923C237.055 186.497 236.426 188.004 235.31 189.116C234.194 190.229 232.682 190.856 231.103 190.862Z" fill="#ED7E3D"/>
<path d="M254.043 154.632C265.065 154.632 274 145.725 274 134.738C274 123.751 265.065 114.845 254.043 114.845C243.021 114.845 234.086 123.751 234.086 134.738C234.086 145.725 243.021 154.632 254.043 154.632Z" fill="#D9E021"/>
<path d="M136.544 57.2346C134.437 53.4969 129.11 55.272 127.546 51.6497C126.236 48.6047 129.32 45.7545 127.662 43.1208C126.279 40.9128 122.899 40.9561 122.291 40.9561C117.701 41.0138 116.652 44.8886 113.373 44.7948C109.355 44.6721 109.196 38.8274 103.868 36.338C98.6781 33.9136 91.0702 35.8257 87.9865 40.3139C85.5833 43.8135 87.6246 46.3967 84.4757 50.892C82.3041 53.9948 80.3786 54.1319 79.3001 57.1697C78.2794 60.056 78.9671 62.7402 79.5027 64.7606C80.7912 69.5951 83.1945 71.7165 86.8066 76.8324C89.0883 80.0627 91.1325 83.4533 92.9233 86.9776C94.3318 90.9451 95.5279 94.9843 96.5065 99.0783C97.6575 103.855 97.5851 104.851 98.6781 106.366C102.37 111.648 110.767 110.984 114.285 110.696C118.31 110.378 123.304 109.974 125.816 106.222C127.17 104.187 126.996 102.376 127.315 97.563C127.629 92.7915 128.209 88.0411 129.052 83.3337C129.452 81.2873 129.996 79.2715 130.681 77.3014C132.128 73.1452 133.641 72.4741 135.277 68.1808C136.566 64.7173 138.259 60.2796 136.544 57.2346ZM120.995 90.5494C118.425 90.8741 115.754 89.8711 112.374 89.7051C105.598 89.366 103.456 92.7718 100.242 91.3214C98.9025 90.7153 95.7971 89.0197 95.1384 85.6932C94.6365 82.8797 94.5633 80.0068 94.9212 77.1715C95.4569 72.9936 96.0722 68.1808 99.2645 66.0377C103.825 62.9422 109.638 68.2024 113.8 64.775C115.166 63.4995 116.053 61.7957 116.312 59.9477C118.861 60.939 121.16 62.4785 123.044 64.4566C124.928 66.4347 126.352 68.8026 127.213 71.3918C128.864 76.5005 127.568 81.8401 126.873 84.38C125.505 89.1856 124.47 90.1092 120.995 90.5494Z" fill="url(#paint12_linear)"/>
<path d="M105.852 94.4675C105.852 95.9985 106.462 97.4668 107.548 98.5493C108.634 99.6319 110.107 100.24 111.643 100.24C113.179 100.24 114.652 99.6319 115.738 98.5493C116.824 97.4668 117.434 95.9985 117.434 94.4675H105.852Z" fill="white"/>
<path d="M94.697 80.1302C94.697 80.1302 93.6546 74.7185 89.8616 77.3305C86.0685 79.9426 91.208 87.483 95.8335 87.5696L94.697 80.1302Z" fill="url(#paint13_linear)"/>
<path d="M126.88 80.1302C126.88 80.1302 127.923 74.7185 131.723 77.3305C135.523 79.9426 130.377 87.483 125.751 87.5696L126.88 80.1302Z" fill="url(#paint14_linear)"/>
<defs>
<linearGradient id="paint0_linear" x1="43.3815" y1="224.047" x2="241.581" y2="25.2144" gradientUnits="userSpaceOnUse">
<stop stop-color="#61A2F7"/>
<stop offset="1" stop-color="#4040A9"/>
</linearGradient>
<linearGradient id="paint1_linear" x1="122.486" y1="141.68" x2="99.0535" y2="190.826" gradientUnits="userSpaceOnUse">
<stop stop-color="#953158"/>
<stop offset="1" stop-color="#630735"/>
</linearGradient>
<linearGradient id="paint2_linear" x1="107.263" y1="146.146" x2="107.263" y2="179.88" gradientUnits="userSpaceOnUse">
<stop stop-color="#FFAC67"/>
<stop offset="1" stop-color="#F4D593"/>
</linearGradient>
<linearGradient id="paint3_linear" x1="2694.58" y1="2354.13" x2="2443.27" y2="3226.1" gradientUnits="userSpaceOnUse">
<stop stop-color="#953158"/>
<stop offset="1" stop-color="#630735"/>
</linearGradient>
<linearGradient id="paint4_linear" x1="175.235" y1="90.5206" x2="239.841" y2="90.5206" gradientUnits="userSpaceOnUse">
<stop stop-color="#292942"/>
<stop offset="1" stop-color="#19002B"/>
</linearGradient>
<linearGradient id="paint5_linear" x1="196.821" y1="87.2375" x2="196.821" y2="135.763" gradientUnits="userSpaceOnUse">
<stop stop-color="#FCDD93"/>
<stop offset="1" stop-color="#FFAC67"/>
</linearGradient>
<linearGradient id="paint6_linear" x1="111.316" y1="57.7854" x2="111.316" y2="124.766" gradientUnits="userSpaceOnUse">
<stop stop-color="#FCE196"/>
<stop offset="1" stop-color="#FFAB66"/>
</linearGradient>
<linearGradient id="paint7_linear" x1="182.474" y1="15.2467" x2="182.474" y2="0" gradientUnits="userSpaceOnUse">
<stop stop-color="#440B43"/>
<stop offset="1" stop-color="#761658"/>
</linearGradient>
<linearGradient id="paint8_linear" x1="5394.51" y1="732.527" x2="5394.51" y2="141.695" gradientUnits="userSpaceOnUse">
<stop stop-color="#440B43"/>
<stop offset="1" stop-color="#761658"/>
</linearGradient>
<linearGradient id="paint9_linear" x1="6223.3" y1="1532.24" x2="6223.3" y2="557.983" gradientUnits="userSpaceOnUse">
<stop stop-color="#440B43"/>
<stop offset="1" stop-color="#761658"/>
</linearGradient>
<linearGradient id="paint10_linear" x1="182.477" y1="25.9937" x2="182.477" y2="65.1183" gradientUnits="userSpaceOnUse">
<stop stop-color="#FCE297"/>
<stop offset="1" stop-color="#FFA25F"/>
</linearGradient>
<linearGradient id="paint11_linear" x1="2465.39" y1="333.551" x2="2614.45" y2="333.551" gradientUnits="userSpaceOnUse">
<stop stop-color="#292942"/>
<stop offset="1" stop-color="#19002B"/>
</linearGradient>
<linearGradient id="paint12_linear" x1="78.7716" y1="73.0947" x2="137.268" y2="73.0947" gradientUnits="userSpaceOnUse">
<stop stop-color="#3D3D63"/>
<stop offset="1" stop-color="#2C004C"/>
</linearGradient>
<linearGradient id="paint13_linear" x1="92.1884" y1="76.6182" x2="92.1884" y2="87.5696" gradientUnits="userSpaceOnUse">
<stop stop-color="#FCE196"/>
<stop offset="1" stop-color="#FFAB66"/>
</linearGradient>
<linearGradient id="paint14_linear" x1="129.398" y1="76.6182" x2="129.398" y2="87.5696" gradientUnits="userSpaceOnUse">
<stop stop-color="#FCE196"/>
<stop offset="1" stop-color="#FFAB66"/>
</linearGradient>
</defs>
</svg>
