<svg width="91" height="98" viewBox="0 0 91 98" fill="none" xmlns="http://www.w3.org/2000/svg">
<g filter="url(#filter0_d)">
<path d="M35.1821 19.5879C32.9666 19.7408 29.8342 20.1231 28.5355 20.3525C28.4591 20.3525 28.3063 20.3525 28.2299 20.3525C28.1535 20.3525 28.0771 20.2761 27.9243 20.2761L27.7715 20.1996C27.7715 20.1996 27.7715 20.3525 27.7715 20.5055C27.7715 20.9643 28.2299 21.3466 28.6883 21.2701C30.0634 21.1172 32.9666 20.7349 35.1057 20.5819H35.1821L35.2585 19.5879H35.1821Z" fill="#3F1369"/>
<path d="M20.4373 44.669C21.2777 44.5161 22.1181 44.4396 22.4237 44.3631C22.9585 44.2102 23.3405 43.9808 23.4933 43.4456C23.5697 43.2162 23.5697 42.9868 23.4933 42.6809C23.2641 41.9927 22.8821 40.6163 22.6529 39.5458C22.5001 39.0106 22.0417 38.7047 21.5069 38.7812H21.4305V38.8576C21.7361 39.8517 22.1945 41.6868 22.5001 42.6809C22.5765 42.9103 22.6529 43.2162 22.5765 43.3691C22.5001 43.6749 22.2709 43.9043 21.6597 44.0573C21.3541 44.1337 20.8957 44.2102 20.4373 44.2102C19.9025 44.2867 18.6038 44.5161 18.6038 44.5161C18.6802 44.7455 18.833 44.7455 19.0622 44.669C19.5205 44.8219 20.0553 44.7455 20.4373 44.669Z" fill="#3F1369"/>
<path d="M25.7851 17.4473C25.7851 22.0352 26.6255 32.8168 28.9939 42.375C29.0703 42.6808 28.9939 42.9867 28.8411 43.2926C28.6883 43.522 28.3827 43.6749 28.0771 43.6749C27.2367 43.7514 25.9379 43.8278 25.2503 43.9043H25.174V43.9808C25.2503 44.2101 25.4031 44.1337 25.6323 44.1337C26.2435 44.0572 27.4659 43.9808 28.6883 43.9043C28.9175 43.9043 29.1467 43.8278 29.3759 43.6749C29.7579 43.369 29.9106 42.8338 29.8343 42.375C27.5423 33.3521 26.6255 22.341 26.6255 17.3708C26.6255 16.912 26.1671 16.6061 25.7851 16.6826L25.4795 16.7591L25.5559 16.8355C25.7087 16.9885 25.7851 17.2179 25.7851 17.4473Z" fill="#3F1369"/>
<path d="M34.4183 21.9586C34.4183 21.6527 34.1127 21.4233 33.8071 21.4233H33.5779L33.6543 21.4998C33.7307 21.6527 33.8071 21.8057 33.8071 21.9586C33.9599 25.3231 34.6475 33.5049 35.1059 38.0928V38.1693C35.4878 38.1693 35.7934 37.8634 35.717 37.4811C35.4114 34.8812 34.5711 24.9407 34.4183 21.9586C34.4183 22.0351 34.4183 21.9586 34.4183 21.9586Z" fill="#3F1369"/>
<path d="M31.5914 43.6747C33.2722 43.5983 39.3077 43.4453 40.9884 43.3689C41.294 43.3689 41.5232 43.2924 41.7524 43.1395C42.058 42.9101 42.2108 42.5278 42.2108 42.1454C42.2108 42.1454 42.2872 39.8515 42.2108 38.8574C42.2108 38.628 41.9816 38.4751 41.7524 38.4751H41.676L41.7524 38.628C41.8288 38.781 41.8288 38.9339 41.8288 39.0868L41.9052 42.1454C41.9052 42.3748 41.8288 42.6042 41.7524 42.7572C41.5232 43.063 41.2176 43.2159 40.912 43.2159C39.0021 43.2159 33.425 43.3689 31.515 43.5218H31.4386C31.3622 43.5218 31.2858 43.5218 31.2094 43.5218H31.0566V43.5983C31.2094 43.6747 31.3622 43.6747 31.5914 43.6747Z" fill="#3F1369"/>
<path d="M40.912 36.793C39.6897 36.793 38.1617 36.8695 37.2449 36.8695H37.1685C37.0157 36.8695 36.9393 36.8695 36.7865 36.793L36.6337 36.7165V36.9459C36.6337 37.2518 36.8629 37.4812 37.1685 37.4812C38.2381 37.4047 40.3772 37.4047 41.0648 37.4047C41.4468 37.4047 41.8288 37.1753 42.058 36.8695C42.2108 36.6401 42.2872 36.4107 42.2872 36.1048V34.499C42.2108 31.9757 42.2108 27.923 42.2108 24.7115C42.2108 23.0292 42.2108 21.4999 42.2108 20.5823C42.2108 20.5059 42.2108 20.4294 42.2872 20.4294C42.3636 20.4294 42.3636 20.3529 42.44 20.3529H42.6692C45.5723 20.4294 47.7115 20.5059 48.7811 20.5823C49.3159 20.5823 49.6979 20.2 49.6979 19.7412V19.4354L49.5451 19.5118C49.5451 19.5118 49.3923 19.5883 49.2395 19.5883H49.1631C47.4059 19.4354 44.1972 19.3589 42.3636 19.3589H42.1344C42.058 19.3589 41.9052 19.4354 41.8288 19.5118C41.7524 19.5883 41.676 19.6647 41.676 19.8177C41.676 22.5704 41.8288 30.4464 41.9052 34.1932V35.646C41.9052 35.8754 41.8288 36.1048 41.7524 36.2577C41.5996 36.6401 41.294 36.793 40.912 36.793Z" fill="#3F1369"/>
<path d="M50.9203 19.5881C50.9203 20.1998 51.3787 20.7351 52.0663 20.8116C54.0526 21.041 56.7266 21.2704 59.0185 21.8056C59.0949 21.8056 59.1713 21.8821 59.1713 21.9585C59.0949 25.5524 58.1781 32.3578 57.185 36.7928C57.1086 37.0987 57.185 37.481 57.4142 37.7869C57.6433 38.0927 57.9489 38.2457 58.2545 38.3221C58.7129 38.3986 59.7825 38.5515 60.6993 38.628C60.8521 38.628 61.1577 38.7045 61.4633 38.7045C61.9217 38.7809 62.3036 38.4751 62.38 38.0163L62.2272 38.0927C62.1509 38.0927 61.9981 38.1692 61.9217 38.1692C61.8453 38.1692 61.8453 38.1692 61.7689 38.1692C60.8521 38.0163 59.8589 37.9398 59.0949 37.7869C58.7893 37.7869 58.5601 37.5575 58.3309 37.3281C58.1781 37.0987 58.1017 36.7928 58.1781 36.487C59.1713 32.052 59.9353 24.8642 60.0881 21.2704C60.0881 21.1174 59.9353 20.9645 59.7825 20.888C57.4142 20.4292 54.511 20.0469 52.6011 19.8175C52.0663 19.741 51.6079 19.2823 51.6079 18.747C51.6079 18.0588 51.6079 17.0648 51.6079 16.1472C51.6079 15.9178 51.6843 15.6884 51.7607 15.5354L51.8371 15.459H51.6843C51.3787 15.459 51.0731 15.6119 50.9967 15.9942C50.9967 16.0707 50.9967 16.1472 50.9967 16.2236C50.9967 16.606 50.9967 17.2942 50.9967 17.9059C50.9203 18.5941 50.9203 19.2823 50.9203 19.5881Z" fill="#3F1369"/>
<path d="M66.4291 44.6687C65.8179 44.5923 65.0539 44.4393 64.2899 44.3629C64.0607 44.3629 63.8315 44.2099 63.6787 44.1335C63.3731 43.8276 63.2203 43.3688 63.3731 42.9865C64.0607 40.9984 65.2831 35.9517 65.8179 33.2754C65.8179 33.046 65.7415 32.8931 65.5123 32.8166C65.1303 32.7401 64.5191 32.5872 64.0607 32.5107H63.9843L63.9079 32.7401C63.8315 33.046 64.0607 33.3519 64.3663 33.3519H64.5191C64.5955 33.3519 64.6719 33.5048 64.6719 33.5813C64.2135 36.1046 62.9911 40.6925 62.3035 42.8336C62.1508 43.2924 62.3035 43.8276 62.6855 44.1335C62.8383 44.2864 63.0675 44.3629 63.3731 44.4393C64.1371 44.5158 64.9775 44.6687 65.5887 44.7452H65.6651C65.9707 44.8217 66.1999 44.8217 66.3527 44.8217C66.5818 44.8217 66.811 44.8217 66.8874 44.5923V44.5158H66.7346C66.5818 44.6687 66.5055 44.6687 66.4291 44.6687Z" fill="#3F1369"/>
<path d="M66.5819 22.5701L66.2763 22.4937C65.8943 22.3407 65.2831 22.1878 65.0539 22.1113H64.9775V22.4172C64.9775 22.7995 65.2067 23.1818 65.5887 23.3348C65.7415 23.3348 65.8179 23.4877 65.7415 23.5642C65.7415 24.1759 65.5887 25.3993 65.5123 26.3169C65.4359 26.9286 65.8943 27.4639 66.4291 27.6168V27.5404C66.5055 26.3169 66.7347 24.023 66.7347 22.9524C66.8875 22.7995 66.8111 22.6466 66.5819 22.5701Z" fill="#3F1369"/>
<path d="M33.5014 44.8217C34.0362 44.8217 34.4946 45.204 34.571 45.7393C34.6474 46.351 34.8002 47.1156 34.953 47.8803L35.0294 48.492C35.1058 48.7214 35.0294 48.9508 34.953 49.1037L34.8766 49.2567H35.0294C35.4114 49.2567 35.7934 48.8743 35.717 48.492L35.5642 47.6509C35.4114 46.8862 35.335 46.1981 35.2586 45.5863C35.1822 44.9746 34.6474 44.5923 34.0362 44.5923C31.5914 44.6688 23.1876 45.204 19.6733 45.7393C19.5969 45.7393 19.5969 45.7393 19.5205 45.7393C19.2149 45.8157 18.9857 46.0451 19.0621 46.351L19.1385 46.2745C19.2913 46.1216 19.5205 46.0451 19.7497 45.9687C23.4168 45.3569 31.2094 44.8981 33.5014 44.8217Z" fill="#3F1369"/>
<path d="M46.1836 50.1739C46.0308 51.7032 45.496 55.8324 45.3432 57.3617C45.3432 57.4381 45.2668 57.5146 45.114 57.5146C44.8084 57.5146 44.1972 57.5146 43.6624 57.5146C43.2804 57.5146 42.8984 57.8205 42.8984 58.2793H43.1276H43.4332C44.0444 58.2793 44.732 58.2793 45.3432 58.2793C45.496 58.2793 45.6488 58.1263 45.7252 57.9734C46.0308 55.9853 46.5656 51.3974 46.7184 49.7151V49.6387C46.4892 49.6387 46.1836 49.8681 46.1836 50.1739Z" fill="#3F1369"/>
<path d="M42.058 69.5198C41.9053 69.9786 41.6761 70.5903 41.5233 71.1256C41.5233 71.2021 41.4469 71.2021 41.3705 71.2021H41.2941C40.6829 70.7433 39.9953 69.9786 39.5369 69.5198C39.2313 69.214 38.8493 69.061 38.3909 69.061H37.8561L38.0089 69.214C38.7729 70.0551 40.2245 71.5079 41.2177 72.2726C41.2941 72.3491 41.3705 72.3491 41.4469 72.3491C41.5997 72.3491 41.6761 72.2726 41.7525 72.1197C42.0581 71.355 42.44 70.0551 42.6692 69.214V69.1375C42.3636 69.061 42.1344 69.2904 42.058 69.5198Z" fill="#3F1369"/>
<path d="M29.9871 63.326C33.5014 63.7083 39.9189 64.0141 42.8984 64.0141C43.0512 64.0141 43.204 64.0141 43.3568 64.0141C43.5096 64.0141 43.6624 63.8612 43.7388 63.7083C43.7388 63.4789 43.8916 62.7907 43.8916 62.5613V62.4848H43.4332V62.5613C43.4332 62.7142 43.4332 62.7142 43.4332 62.8672V63.0201C43.4332 63.0966 43.3568 63.173 43.204 63.173C40.9121 63.173 34.571 62.8672 30.5983 62.4848C29.8343 62.4084 29.2231 62.8672 28.9939 63.6318C28.9939 63.7847 28.9175 63.9377 28.9175 63.9377L28.9939 63.8612C29.2231 63.4789 29.6051 63.2495 29.9871 63.326Z" fill="#3F1369"/>
<path d="M55.1986 62.4854C53.8998 62.5618 50.7675 62.7912 49.4687 62.9442C49.0867 62.9442 48.7811 63.25 48.6283 63.5559L48.4755 63.8618H48.6283C50.3091 63.7853 53.5178 63.4794 55.5042 63.25C55.8862 63.25 56.1918 63.403 56.4209 63.7088L56.4973 63.7853C56.4973 63.7853 56.4209 63.5559 56.4209 63.25C56.2682 62.7912 55.8098 62.4089 55.1986 62.4854Z" fill="#3F1369"/>
<path d="M41.8288 44.5925C44.8083 44.5925 49.3158 44.6689 52.2189 44.8219C52.4481 44.8219 52.6009 44.8983 52.7537 45.0513L52.8301 45.1277V45.0513C52.9065 44.7454 52.6773 44.516 52.2954 44.516C52.219 44.516 52.1426 44.516 52.0662 44.516C49.163 44.3631 44.6555 44.2866 41.676 44.2866C39.8424 44.2866 38.3144 44.2866 37.3977 44.3631C37.3213 44.3631 37.3213 44.3631 37.2449 44.3631C36.8629 44.4396 36.7101 44.5925 36.7101 44.9748L36.8629 44.8983C37.0157 44.7454 37.2449 44.7454 37.3977 44.6689C38.4672 44.5925 39.9952 44.5925 41.8288 44.5925Z" fill="#3F1369"/>
<path d="M65.8944 45.7395C65.7416 45.663 65.6652 45.663 65.5124 45.5865C63.3732 45.3571 57.8726 44.7454 55.7334 44.6689H55.657C55.0458 44.6689 54.5874 45.0513 54.4346 45.663C53.4415 50.098 50.6911 58.1269 49.6979 60.9561V61.0325C49.6215 61.5678 50.0799 62.0266 50.6147 62.0266H50.6911L50.6147 61.7972C50.4619 61.4913 50.4619 61.1855 50.5383 60.9561C51.1495 59.2738 54.129 50.7862 55.1986 45.9689C55.275 45.5101 55.7334 45.1277 56.1918 45.1277H56.2682C58.4074 45.2807 63.4496 45.7395 65.436 45.8924C65.7416 45.8924 65.9708 46.0453 66.1236 46.2747L66.2 46.4276V46.3512C66.2764 46.0453 66.2 45.8924 65.8944 45.7395Z" fill="#3F1369"/>
<path d="M59.4005 50.8624C58.6365 52.5447 57.1085 55.9092 56.5737 56.8267C56.5737 56.9032 56.4973 56.9032 56.4209 56.9032C56.0389 56.9032 55.7333 57.1326 55.5805 57.5149L55.5042 57.7443H55.6569C55.8097 57.7443 56.0389 57.7443 56.2681 57.7443C56.5737 57.7443 56.8029 57.7443 56.9557 57.6679C57.1085 57.6679 57.1849 57.5914 57.2613 57.5149C58.0253 56.215 59.9352 52.0859 60.7756 50.0978L60.852 50.0213C60.2408 49.9448 59.6297 50.2507 59.4005 50.8624Z" fill="#3F1369"/>
<path d="M37.0157 54.9914C36.8629 54.2268 36.5574 52.621 36.4046 52.0093C36.3282 51.474 35.7934 51.0152 35.2586 51.0152C34.4946 51.0152 33.3486 51.0152 32.279 51.0152H31.1331C30.0635 51.0152 28.7647 51.0152 27.6187 50.9388C27.6187 50.8623 27.5423 50.7094 27.4659 50.48C27.3132 50.0212 26.8548 49.7153 26.32 49.7153H26.1672L26.2436 49.8683C26.32 50.0212 26.3964 50.1741 26.3964 50.3271C26.5492 50.7858 26.7784 51.2446 26.8548 51.5505V51.627H26.9312C28.3827 51.627 29.8343 51.7034 31.2095 51.7034C32.4318 51.7034 33.7306 51.7034 34.8002 51.7799C35.335 51.7799 35.717 52.1622 35.7934 52.621C35.9462 53.2327 36.1754 54.3797 36.3282 55.1444C36.4046 55.3738 36.3282 55.6032 36.2518 55.7561L36.1754 55.909H36.2518C36.7101 55.7561 37.0921 55.4502 37.0157 54.9914Z" fill="#3F1369"/>
<path d="M37.5505 62.0264C38.0089 62.0264 38.3145 61.6441 38.3145 61.2617C38.3145 61.1853 38.3145 61.1853 38.3145 61.1088C38.3145 61.1088 37.7797 58.7384 37.7033 58.2796C37.5505 57.7443 37.0921 57.362 36.5573 57.362C34.8002 57.2856 32.1262 57.1326 30.3691 57.0562C30.2927 56.9797 30.2927 56.8268 30.2163 56.6738C29.9871 56.215 29.5287 55.9092 29.0703 55.9092H28.9939L29.0703 56.0621C29.0703 56.0621 29.0703 56.1386 29.1467 56.215C29.2995 56.5974 29.6051 57.362 29.8343 57.7443V57.8208H29.9107C31.515 57.9737 34.2654 58.1267 36.3281 58.2031C36.7865 58.2031 37.2449 58.5855 37.3213 59.0443C37.3977 59.503 37.7797 61.2617 37.8561 61.2617C37.9325 61.5676 37.9325 61.8735 37.7797 62.0264H37.5505Z" fill="#3F1369"/>
<path d="M60.9285 43.9044H60.7757C60.6993 43.9044 60.6229 43.9044 60.5465 43.9044C55.9626 43.4456 48.7811 43.2162 44.5028 43.1397C44.2736 43.1397 44.0445 43.0632 43.8917 42.9103C43.5861 42.6809 43.4333 42.4515 43.4333 41.9927C43.4333 39.8517 43.5861 31.364 43.7389 26.0115L43.8153 21.5765C43.8153 21.4235 43.8917 21.2706 43.8917 21.1177H44.0445C43.7389 21.1177 43.5097 21.3471 43.5097 21.5765V21.6529L43.3569 26.3173C43.2805 29.7583 43.2041 34.4227 43.1277 37.7871C43.1277 39.8517 43.0513 41.381 43.0513 42.1457C43.0513 42.528 43.2041 42.9103 43.5861 43.2162C43.8153 43.3691 44.0444 43.4456 44.35 43.4456C48.0172 43.4456 57.949 43.9808 60.3173 44.1338C60.5465 44.2102 60.7757 44.1338 60.9285 43.9044Z" fill="#3F1369"/>
<path d="M56.2682 35.2638C54.6638 35.1108 51.1495 34.805 49.5451 34.7285H49.4688C49.4688 35.1108 49.6979 35.4167 50.0799 35.4167C51.5315 35.4932 54.8166 35.799 56.039 35.8755C56.421 35.8755 56.7266 35.6461 56.7266 35.3402V35.2638H56.5738C56.4974 35.2638 56.421 35.2638 56.3446 35.2638C56.3446 35.2638 56.3446 35.2638 56.2682 35.2638Z" fill="#3F1369"/>
<path d="M57.3378 27.0052C55.657 26.7758 52.1427 26.317 50.1563 26.1641H50.0799C50.0799 26.6229 50.3855 27.0052 50.8439 27.0816C52.3718 27.2346 55.657 27.6169 56.8794 27.7698C57.4142 27.8463 57.8725 27.464 57.8725 27.0052V26.9287L57.7197 27.0052C57.6433 27.0052 57.4905 27.0052 57.3378 27.0052Z" fill="#3F1369"/>
<path d="M20.2081 33.7344C20.8193 33.658 21.2013 33.1227 21.1249 32.5875C20.8957 30.7523 20.3609 26.8526 20.2845 25.3997C20.2845 25.3233 20.3609 25.2468 20.4373 25.2468C20.4373 25.2468 20.5137 25.2468 20.5901 25.2468C21.0485 25.1703 21.2777 24.7115 21.2777 24.3292V24.1763H21.2013C20.7429 24.1763 20.0553 24.3292 19.6733 24.4057L19.3677 24.4821C19.2149 24.5586 19.1385 24.6351 19.1385 24.788C19.2913 26.6996 19.9025 31.5169 20.2845 33.658L20.2081 33.7344Z" fill="#3F1369"/>
<path d="M28.8281 19.8938C30.1269 19.6644 33.1828 19.2821 35.5511 19.1291C35.7803 19.1291 35.9331 19.2821 35.9331 19.5115C36.0095 22.5701 36.6971 32.9694 36.9263 35.8751C36.9263 36.1809 37.1555 36.4103 37.4611 36.4103C38.4543 36.3338 40.2114 36.3338 41.2046 36.3338C41.3574 36.3338 41.5102 36.2574 41.5866 36.1809C41.663 36.1045 41.7394 35.9515 41.7394 35.7986V34.1164C41.663 29.9872 41.5102 21.4231 41.5102 19.2821C41.5102 19.0527 41.663 18.8997 41.8922 18.8997C42.1214 18.8997 42.3506 18.8997 42.6562 18.8997C44.4898 18.8997 47.7749 18.9762 49.4556 19.1291C49.7612 19.1291 50.0668 18.8997 50.0668 18.5939C50.0668 17.8292 50.0668 16.5293 50.1432 15.9176C50.1432 15.6117 49.914 15.3823 49.6084 15.3823C47.6221 15.0765 45.4829 15 43.191 15C36.4679 15 30.8144 15.6882 28.5989 16.147C28.3697 16.2234 28.1405 16.4528 28.1405 16.6822C28.1405 17.9057 28.1405 18.7468 28.1405 19.2821C28.1405 19.6644 28.4461 19.8938 28.8281 19.8938Z" fill="white"/>
<path d="M37.0027 62.0267C37.1555 62.0267 37.3083 61.9502 37.4611 61.7973C37.5375 61.6444 37.6139 61.4914 37.5375 61.3385L37.3847 60.8032C37.2319 60.1915 37.0791 59.5033 36.9263 59.0445C36.8499 58.8151 36.6207 58.5857 36.3915 58.5857C34.3288 58.5093 31.5784 58.3563 29.8977 58.2034C29.7449 58.2034 29.6685 58.1269 29.5921 57.974C29.2101 57.3623 28.8281 56.5212 28.5989 56.0624C28.5225 55.9094 28.5225 55.833 28.5989 55.6801C28.6753 55.5271 28.8281 55.5271 28.9809 55.5271C30.8145 55.6036 33.9468 55.6801 35.5512 55.7565C35.704 55.7565 35.8567 55.6801 36.0095 55.5271C36.0859 55.3742 36.1623 55.2213 36.0859 55.0683V54.9919C35.9331 54.2272 35.704 53.1567 35.5512 52.545C35.4748 52.3156 35.2456 52.0862 35.0164 52.0862C33.9468 52.0862 32.7244 52.0862 31.4256 52.0097C29.9741 52.0097 28.3697 52.0097 26.9181 51.9332C26.7653 51.9332 26.6125 51.8568 26.5361 51.7039C26.307 51.2451 26.0014 50.4804 25.7722 49.8687C25.6958 49.7158 25.7722 49.6393 25.7722 49.4864C25.8486 49.4099 25.925 49.3334 26.0778 49.3334C26.6125 49.3334 27.2237 49.3334 27.8349 49.3334C29.8977 49.3334 32.0368 49.257 34.2524 49.257C34.4052 49.257 34.558 49.1805 34.7108 49.0276C34.7872 48.8746 34.8636 48.7217 34.8636 48.5688L34.7872 47.957C34.6344 47.1924 34.4816 46.3513 34.4052 45.7396C34.3288 45.4337 34.0996 45.2808 33.8704 45.2808C31.5784 45.3572 23.7858 45.816 20.1951 46.2748C20.0423 46.2748 19.8895 46.4277 19.8131 46.5042C19.7367 46.6571 19.7367 46.8101 19.7367 46.963C20.9591 50.3275 24.7026 57.8211 27.2237 61.0326C27.3001 61.1091 27.4529 61.1856 27.6057 61.262C29.5157 61.5679 35.1692 61.9502 37.0027 62.0267Z" fill="white"/>
<path d="M31.8076 42.91C33.7939 42.7571 39.5238 42.6806 41.4338 42.6042C41.5865 42.6042 41.7393 42.5277 41.8157 42.4512C41.8921 42.3748 41.9685 42.2218 41.9685 42.0689L41.8921 39.0103C41.8921 38.7044 41.6629 38.475 41.3574 38.475C40.2114 38.475 36.8498 38.5515 35.2455 38.628C35.0163 38.628 34.8635 38.475 34.8635 38.2456C34.4051 33.7342 33.7175 25.5524 33.5647 22.1114C33.5647 21.8056 33.2591 21.5762 32.9535 21.5762C31.4256 21.7291 29.7448 21.882 28.828 22.035C28.5224 22.1114 28.3696 22.3408 28.3696 22.5702C28.5224 27.5405 30.2796 38.475 31.2728 42.4512C31.2728 42.7571 31.502 42.91 31.8076 42.91Z" fill="white"/>
<path d="M61.5209 42.9638C61.7501 42.2756 62.1321 40.9757 62.2849 40.2111C62.3613 40.0581 62.2849 39.9052 62.2085 39.7523C62.1321 39.5994 61.9793 39.5229 61.8265 39.5229C58.5414 39.0641 52.2003 38.6053 49.45 38.5288C49.3736 38.5288 49.2208 38.4524 49.1444 38.3759C49.068 38.2994 49.068 38.223 49.068 38.07C49.1444 37.1525 49.2972 35.4702 49.3736 34.4762C49.3736 34.2468 49.5264 34.0938 49.7556 34.0938C51.1307 34.1703 54.8743 34.4762 56.6314 34.6291C56.937 34.6291 57.1662 34.4762 57.2426 34.1703C57.3954 33.3292 57.6246 31.8763 57.701 31.0352C57.701 30.8823 57.701 30.7294 57.6246 30.5764C57.5482 30.4235 57.3954 30.347 57.2426 30.347C55.2562 30.1176 51.4363 29.8118 50.0612 29.6589C49.832 29.6589 49.6792 29.4295 49.6792 29.2765C49.7556 28.3589 49.832 26.8296 49.9084 25.8356C49.9084 25.6062 50.1376 25.4533 50.3668 25.4533C52.2767 25.6062 55.8674 25.9885 57.701 26.2944H57.7774C58.083 26.2944 58.3122 26.065 58.3122 25.7591C58.3886 25.2239 58.5414 23.771 58.6178 22.5476C58.6178 22.2417 58.465 22.0123 58.1594 21.9358C53.8047 21.4771 49.45 21.1712 45.3245 21.0947C45.0189 21.0947 44.7897 21.3241 44.7897 21.63L44.7133 24.7651C44.5605 30.1176 44.3313 39.7523 44.2549 42.0462C44.2549 42.1992 44.3313 42.3521 44.4077 42.4286C44.4841 42.505 44.6369 42.5815 44.7897 42.5815C48.9916 42.5815 56.3258 42.8874 60.9861 43.3462C60.9861 43.3462 60.9861 43.3462 61.0625 43.3462C61.2917 43.3462 61.4445 43.1932 61.5209 42.9638Z" fill="white"/>
<path d="M71 20.8113C71 20.6583 70.9236 20.4289 70.7708 20.3525C65.4229 16.9115 54.2687 15.6881 53.0464 15.5352C52.7408 15.5352 52.4352 15.7646 52.4352 16.0704C52.4352 16.988 52.4352 18.0585 52.4352 18.7467C52.4352 19.0526 52.6644 19.282 52.97 19.282C55.1091 19.5114 58.2415 19.8937 60.6098 20.4289C60.6862 20.5054 60.839 20.6583 60.839 20.8877C60.7626 24.5581 59.9986 31.9752 59.0054 36.4867C59.0054 36.6396 59.0054 36.7925 59.0818 36.9455C59.1582 37.0984 59.311 37.1749 59.4638 37.1749C60.075 37.2513 61.1446 37.4043 62.2142 37.5572C62.5198 37.6337 62.749 37.4043 62.8254 37.0984C63.0546 36.1043 63.513 33.8869 63.8185 32.3575C63.8185 32.1281 64.0477 31.9752 64.2769 32.0517C65.0409 32.2046 65.8049 32.3575 66.4161 32.5105C66.6453 32.5869 66.7217 32.7399 66.7217 32.9693C66.3397 35.4162 64.9645 40.9981 64.2005 43.2156C64.1241 43.3686 64.2005 43.5215 64.2769 43.6744C64.3533 43.8274 64.5061 43.9038 64.6589 43.9038C65.4993 43.9803 66.2633 44.1332 66.8745 44.2097H66.9509C67.1801 44.2097 67.4093 44.0567 67.4857 43.8274C68.5552 40.6158 69.3956 37.1749 70.0068 33.8104C70.0832 33.4281 70.0068 33.0457 69.9304 32.7399C69.854 32.5105 69.7776 32.2811 69.6248 31.9752C69.5484 31.8223 69.472 31.5929 69.3956 31.44C69.3192 31.2106 69.3192 30.9047 69.5484 30.6753C69.7012 30.5224 69.7776 30.3694 69.9304 30.2165C70.1596 29.9871 70.3124 29.6813 70.4652 29.4519C70.5416 29.2989 70.618 29.0695 70.6944 28.9166C70.9236 25.0933 71 22.0347 71 20.8113ZM67.3329 27.7696C67.3329 27.999 67.1037 28.1519 66.8745 28.0755C66.2633 27.9226 65.5757 27.7696 64.8117 27.6167C64.5825 27.5402 64.5061 27.3873 64.5061 27.1579C64.6589 25.9345 64.8881 23.4111 64.8881 21.9583C64.8881 21.7289 65.0409 21.5759 65.2701 21.5759H65.3465C65.9577 21.7289 66.7981 21.9582 67.3329 22.1876C67.6385 22.2641 67.7149 22.417 67.7149 22.6464C67.6385 23.6405 67.4857 26.3168 67.3329 27.7696Z" fill="white"/>
<path d="M55.9494 63.7848C53.8867 64.0907 50.4487 64.3201 48.6916 64.3965C48.5388 64.3965 48.4624 64.3201 48.386 64.2436C48.3096 64.1671 48.3096 64.0142 48.3096 63.8613C49.532 60.2674 52.0531 50.7092 52.9699 45.9684C52.9699 45.8154 52.9699 45.6625 52.8935 45.5096C52.8171 45.3566 52.6643 45.2802 52.5115 45.2802C49.6084 45.1272 45.1008 45.0508 42.1977 45.0508C40.3642 45.0508 38.8362 45.0508 37.9194 45.1272C37.7666 45.1272 37.6138 45.2037 37.5374 45.3566C37.461 45.5096 37.3846 45.6625 37.3846 45.8154C37.843 49.3328 39.2946 59.4263 39.6766 61.7202C39.753 61.9496 39.9822 62.179 40.2114 62.179C41.2045 62.179 42.7325 62.2555 43.8785 62.2555C44.1077 62.2555 44.2605 62.2555 44.4133 62.2555C44.4897 62.2555 44.6425 62.332 44.7189 62.4084C44.7953 62.4849 44.7953 62.6378 44.7953 62.7143C44.7189 63.1731 44.6425 63.8613 44.5661 64.3201C44.5661 64.473 44.4133 64.6259 44.1841 64.6259C43.8785 64.6259 43.5729 64.6259 43.1909 64.6259C40.0586 64.6259 34.3287 64.3965 30.356 63.9377C30.1268 63.9377 29.8976 64.0142 29.8212 64.2436C29.7448 64.473 29.7448 64.6259 29.8976 64.8553C32.7243 68.4492 37.5374 73.4959 42.6561 77.0898C42.7325 77.1662 42.8853 77.1662 42.9617 77.1662C43.1909 77.1662 43.3437 77.0898 43.4201 76.8604C44.4897 75.0252 46.3996 70.8196 47.1636 68.9844C47.24 68.8315 47.3928 68.7551 47.5456 68.7551C49.6847 68.6786 51.7475 68.4492 52.8171 68.3727H52.9699C53.1227 68.3727 53.2755 68.2963 53.3519 68.2198L53.5811 67.9139C54.4978 66.9199 55.3382 65.9258 56.4078 64.5495C56.4842 64.3965 56.4842 64.2436 56.4842 64.0907C56.255 63.8613 56.1022 63.7083 55.9494 63.7848ZM43.4201 69.1374C43.0381 70.3608 42.6561 71.7372 42.1977 72.8077C42.1213 72.9606 41.9685 73.0371 41.8157 73.0371C41.7393 73.0371 41.6629 73.0371 41.5865 72.9607C40.135 71.8137 38.5306 70.2079 37.5374 68.9844C37.461 68.908 37.461 68.8315 37.5374 68.7551C37.6138 68.6786 37.6902 68.6021 37.7666 68.6021V68.5257V68.6021C39.9058 68.7551 42.4269 68.7551 43.1145 68.7551C43.1909 68.7551 43.3437 68.8315 43.3437 68.908C43.4201 68.908 43.4965 69.0609 43.4201 69.1374ZM46.476 58.4322C46.476 58.5852 46.3232 58.7381 46.094 58.7381C45.4828 58.7381 44.4897 58.7381 43.7257 58.7381C43.4965 58.7381 43.2673 58.7381 43.1145 58.7381C42.8853 58.7381 42.7325 58.5852 42.7325 58.3558V56.4441C42.6561 54.0737 42.6561 50.8622 42.5797 49.5622C42.5797 49.4858 42.5797 49.3328 42.6561 49.2564C42.7325 49.1799 42.8089 49.1034 42.9617 49.1034V49.027V49.1034C43.8785 49.1034 45.0244 49.1034 46.0176 49.1034H47.0872C47.1636 49.1034 47.3164 49.1799 47.3928 49.2564C47.4692 49.3328 47.4692 49.4858 47.4692 49.5622C47.3928 51.3209 46.7816 56.5971 46.476 58.4322Z" fill="white"/>
<path d="M65.652 46.2744C63.6657 46.045 58.6998 45.5862 56.5606 45.5098C56.255 45.5098 56.0258 45.6627 55.9494 45.9686C54.8799 50.8623 51.8239 59.5029 51.2127 61.1852C51.1363 61.3381 51.2127 61.5675 51.2891 61.7204C51.3655 61.8734 51.5947 61.9498 51.7475 61.9498C51.7475 61.9498 51.7475 61.9498 51.8239 61.9498C53.9631 61.7969 57.3246 61.491 58.3178 61.4146C58.4706 61.4146 58.6234 61.3381 58.6998 61.1852C60.3041 59.1206 64.6589 51.2447 66.1868 47.1155C66.2632 46.9626 66.2632 46.8097 66.1104 46.6567C66.034 46.3509 65.8812 46.2744 65.652 46.2744ZM61.6793 50.0212C60.9153 51.9329 58.6234 56.8266 57.8594 57.9736C57.783 58.0501 57.7066 58.1266 57.5538 58.1266C57.1718 58.1266 56.4842 58.203 55.9494 58.203H55.873C55.7202 58.203 55.6438 58.1265 55.5674 58.0501C55.491 57.9736 55.491 57.8207 55.5674 57.6678C56.4842 55.6032 58.0122 51.627 58.6234 49.5624C58.6998 49.4095 58.8526 49.2566 59.0054 49.2566C59.693 49.2566 60.6861 49.333 61.4501 49.4095C61.6029 49.4095 61.6793 49.486 61.7557 49.5624C61.6793 49.7918 61.6793 49.8683 61.6793 50.0212Z" fill="white"/>
<path d="M28.8281 42.4516C26.4598 32.8934 25.6194 22.0353 25.6194 17.3709C25.6194 17.218 25.543 17.0651 25.4666 16.9886C25.3138 16.8357 25.161 16.7592 24.9318 16.8357C20.8827 17.7532 17.2156 19.2061 15.4584 20.2001C15.1528 20.3531 15 20.7354 15 21.0413C15.0764 29.1466 16.3752 37.4049 18.5907 43.7515C18.6671 43.9809 18.8963 44.1338 19.1255 44.1338H19.2019C19.9659 43.9809 21.1883 43.8279 21.8759 43.7515C22.0287 43.7515 22.1814 43.675 22.2578 43.5221C22.3342 43.3692 22.3342 43.2162 22.3342 43.0633C22.0287 41.9928 21.4175 40.0047 21.1883 38.9342C21.1883 38.8577 21.1883 38.7048 21.2647 38.6283C21.3411 38.5518 21.4175 38.4754 21.4939 38.4754C22.105 38.3989 22.9454 38.246 23.5566 38.1695C23.7858 38.1695 23.9386 38.246 24.015 38.4754C24.3206 39.6224 24.9318 41.9163 25.2374 42.9868C25.3138 43.2162 25.543 43.4456 25.8486 43.3692C26.5362 43.2927 27.6057 43.2162 28.4461 43.1398C28.5989 43.1398 28.7517 43.0633 28.8281 42.9104C28.9045 42.7574 28.9045 42.6045 28.8281 42.4516ZM22.105 33.7345C21.7231 33.811 21.3411 33.8874 20.8827 33.9639C20.4243 34.0404 19.9659 33.7345 19.8895 33.2757C19.5075 31.1347 18.9727 26.9291 18.8963 24.941C18.8963 24.5587 19.1255 24.1763 19.5075 24.0999C20.0423 23.9469 20.7299 23.794 21.2647 23.6411H21.3411C21.5703 23.6411 21.7231 23.794 21.7231 24.0234C21.8759 26.2409 22.4106 30.7524 22.7926 32.7405C22.869 33.1993 22.5634 33.658 22.105 33.7345Z" fill="white"/>
</g>
<defs>
<filter id="filter0_d" x="-5" y="-5" width="96" height="102.166" filterUnits="userSpaceOnUse" color-interpolation-filters="sRGB">
<feFlood flood-opacity="0" result="BackgroundImageFix"/>
<feColorMatrix in="SourceAlpha" type="matrix" values="0 0 0 0 0 0 0 0 0 0 0 0 0 0 0 0 0 0 127 0"/>
<feOffset/>
<feGaussianBlur stdDeviation="10"/>
<feColorMatrix type="matrix" values="0 0 0 0 0.32549 0 0 0 0 0.847059 0 0 0 0 1 0 0 0 0.7 0"/>
<feBlend mode="lighten" in2="BackgroundImageFix" result="effect1_dropShadow"/>
<feBlend mode="normal" in="SourceGraphic" in2="effect1_dropShadow" result="shape"/>
</filter>
</defs>
</svg>
